<?xml version="1.0" encoding="UTF-8"?>
<svg version="1.1" xmlns="http://www.w3.org/2000/svg" width="1024" height="1024">
<path d="M0 0 C0 21.12 0 42.24 0 64 C-4.14067791 62.96483052 -5.90845034 61.83392052 -9 59 C-9 58.34 -9 57.68 -9 57 C-9.99 56.67 -10.98 56.34 -12 56 C-12 55.34 -12 54.68 -12 54 C-12.57621094 53.74605469 -13.15242187 53.49210937 -13.74609375 53.23046875 C-17.01047623 51.44835353 -19.42519168 48.92289703 -22.09765625 46.36328125 C-23.03931641 45.68845703 -23.03931641 45.68845703 -24 45 C-24.99 45.33 -25.98 45.66 -27 46 C-27.73323796 48.01508358 -27.73323796 48.01508358 -28 50 C-28.66 50 -29.32 50 -30 50 C-30 50.66 -30 51.32 -30 52 C-30.66 52 -31.32 52 -32 52 C-32.33 53.32 -32.66 54.64 -33 56 C-33.66 56 -34.32 56 -35 56 C-35.309375 56.61875 -35.61875 57.2375 -35.9375 57.875 C-36.625 59.25 -37.3125 60.625 -38 62 C-38.66 62 -39.32 62 -40 62 C-40.2475 62.721875 -40.495 63.44375 -40.75 64.1875 C-42.12269592 67.27606582 -43.72353296 69.51011418 -46 72 C-46.66 72 -47.32 72 -48 72 C-48.103125 72.5775 -48.20625 73.155 -48.3125 73.75 C-49.10896465 76.35661158 -50.19065277 77.9735311 -52 80 C-52.66 80 -53.32 80 -54 80 C-54.268125 80.7425 -54.53625 81.485 -54.8125 82.25 C-56 85 -56 85 -57.5559082 86.54823303 C-59.87793821 90.49055615 -59.36569822 94.4904518 -59.29296875 98.97827148 C-59.28858795 99.99185226 -59.28420715 101.00543304 -59.2796936 102.04972839 C-59.26827534 104.25197665 -59.24992515 106.4541973 -59.22549438 108.65633965 C-59.18717205 112.15099965 -59.16764641 115.64531737 -59.15307617 119.14015198 C-59.11296864 127.82792726 -59.04068988 136.51538099 -58.96887207 145.20294189 C-58.9094323 152.53229553 -58.86259447 159.86152388 -58.83218384 167.19105721 C-58.81287501 170.61705597 -58.77533762 174.04253716 -58.73706055 177.46836853 C-58.66363174 188.04326143 -58.6826615 197.84423495 -62 208 C-62.66 208 -63.32 208 -64 208 C-64.33 210.31 -64.66 212.62 -65 215 C-65.66 215 -66.32 215 -67 215 C-67.33 216.32 -67.66 217.64 -68 219 C-68.66 219 -69.32 219 -70 219 C-70 219.66 -70 220.32 -70 221 C-71.6796875 222.5078125 -71.6796875 222.5078125 -73.875 224.125 C-74.59429688 224.66382813 -75.31359375 225.20265625 -76.0546875 225.7578125 C-78 227 -78 227 -80 227 C-80 227.66 -80 228.32 -80 229 C-82.43656685 230.14785376 -84.87419281 231.29335402 -87.3125 232.4375 C-88.00279297 232.76298828 -88.69308594 233.08847656 -89.40429688 233.42382812 C-96.71281949 236.84859476 -102.26192263 237.27880483 -110.2746582 237.35009766 C-112.26747341 237.37444978 -114.2598126 237.4309961 -116.25195312 237.48828125 C-128.04474376 237.5939409 -138.88422936 235.17996009 -148.375 227.8125 C-149.26960937 227.13832031 -150.16421875 226.46414063 -151.0859375 225.76953125 C-151.71757813 225.18558594 -152.34921875 224.60164062 -153 224 C-153 223.34 -153 222.68 -153 222 C-153.66 222 -154.32 222 -155 222 C-155.33 220.68 -155.66 219.36 -156 218 C-156.66 218 -157.32 218 -158 218 C-160.03435531 214.27034861 -161 212.33094958 -161 208 C-161.66 208 -162.32 208 -163 208 C-163.13277344 207.07316406 -163.26554688 206.14632812 -163.40234375 205.19140625 C-163.57894531 203.99386719 -163.75554688 202.79632812 -163.9375 201.5625 C-164.11152344 200.36753906 -164.28554688 199.17257812 -164.46484375 197.94140625 C-164.68985213 195.12044324 -164.68985213 195.12044324 -166 194 C-166.14800702 192.29029007 -166.22791362 190.57465029 -166.28125 188.859375 C-166.31806885 187.74530273 -166.3548877 186.63123047 -166.39282227 185.48339844 C-166.42819092 184.25137695 -166.46355957 183.01935547 -166.5 181.75 C-166.53988037 180.46383789 -166.57976074 179.17767578 -166.62084961 177.85253906 C-166.70725945 175.04761088 -166.79006031 172.24260252 -166.87060547 169.4375 C-166.95616508 166.46858959 -167.04640239 163.49988253 -167.14111328 160.53125 C-167.66165245 144.21352182 -168.09984833 127.8951537 -168.17623901 111.56848145 C-168.18369296 110.11655699 -168.19432764 108.66464508 -168.20828247 107.21276855 C-168.22595833 105.21222262 -168.2285927 103.21156064 -168.23046875 101.2109375 C-168.23457764 100.07962402 -168.23868652 98.94831055 -168.24291992 97.78271484 C-168 95 -168 95 -166 92 C-163.7409668 91.62768555 -163.7409668 91.62768555 -160.94921875 91.63671875 C-159.43618164 91.63768555 -159.43618164 91.63768555 -157.89257812 91.63867188 C-156.30606445 91.6628418 -156.30606445 91.6628418 -154.6875 91.6875 C-153.64142578 91.68427734 -152.59535156 91.68105469 -151.51757812 91.67773438 C-142.53823357 91.74060693 -142.53823357 91.74060693 -138 94 C-136.86757572 96.26484856 -136.86384326 97.52186814 -136.84178162 100.03689575 C-136.8319928 100.88106049 -136.82220398 101.72522522 -136.81211853 102.5949707 C-136.80348534 103.98679565 -136.80348534 103.98679565 -136.79467773 105.40673828 C-136.78477814 106.38238739 -136.77487854 107.3580365 -136.76467896 108.36325073 C-136.73300689 111.59891302 -136.70828398 114.83459001 -136.68359375 118.0703125 C-136.66302915 120.30948272 -136.64203282 122.54864901 -136.62062073 124.78781128 C-136.56534904 130.68968533 -136.51596226 136.59159471 -136.46777344 142.49353027 C-136.41759559 148.51264603 -136.36189015 154.53171029 -136.30664062 160.55078125 C-136.19899672 172.36714355 -136.09756562 184.18355049 -136 196 C-135.34 196 -134.68 196 -134 196 C-133.4121875 197.36125 -133.4121875 197.36125 -132.8125 198.75 C-129.93997103 203.90074161 -126.74060917 205.91979694 -121.25 207.75 C-113.46831397 209.85128614 -106.19531312 210.02183441 -99 206 C-96.18643108 203.43802877 -96.18643108 203.43802877 -94 201 C-93.34 201 -92.68 201 -92 201 C-91.855625 200.030625 -91.71125 199.06125 -91.5625 198.0625 C-91 195 -91 195 -90 194 C-89.89899513 192.61776427 -89.86649365 191.23044202 -89.86196899 189.8445282 C-89.85651566 188.94861969 -89.85106232 188.05271118 -89.84544373 187.12965393 C-89.8444014 186.13900436 -89.84335907 185.1483548 -89.84228516 184.12768555 C-89.83720444 183.09033264 -89.83212372 182.05297974 -89.82688904 180.98419189 C-89.81615871 178.72299238 -89.80754906 176.46178206 -89.80076981 174.20056725 C-89.78902271 170.62460574 -89.7695807 167.04876731 -89.74765015 163.47285461 C-89.68589362 153.30266398 -89.63196178 143.13248477 -89.59863281 132.9621582 C-89.57772034 126.74933763 -89.5424419 120.53673912 -89.49787521 114.32404518 C-89.4836847 111.95216291 -89.47498593 109.58024132 -89.47182083 107.20831871 C-89.46692777 103.89214127 -89.44380994 100.57655579 -89.41650391 97.26049805 C-89.42101311 95.78363274 -89.42101311 95.78363274 -89.4256134 94.27693176 C-89.40897392 92.92037979 -89.40897392 92.92037979 -89.39199829 91.53642273 C-89.38868814 90.75235393 -89.385378 89.96828512 -89.38196754 89.16045666 C-88.89897972 86.42861654 -87.87797323 85.01405262 -86 83 C-85.34 83 -84.68 83 -84 83 C-83.7525 82.46375 -83.505 81.9275 -83.25 81.375 C-81.69347463 78.4176018 -79.96564327 75.70275949 -78 73 C-77.34 73 -76.68 73 -76 73 C-75.7525 72.46375 -75.505 71.9275 -75.25 71.375 C-73.69347463 68.4176018 -71.96564327 65.70275949 -70 63 C-69.34 63 -68.68 63 -68 63 C-67.77441406 62.47535156 -67.54882812 61.95070313 -67.31640625 61.41015625 C-65.53379004 58.14643459 -63.25204961 55.33216691 -60.9375 52.4375 C-60.45015381 51.82269775 -59.96280762 51.20789551 -59.46069336 50.57446289 C-55.67655336 45.81333347 -51.84116615 41.09517165 -47.97265625 36.40234375 C-45.96028639 33.95163591 -43.97606851 31.48003229 -42 29 C-43.1779752 25.96603118 -43.1779752 25.96603118 -45.75 24.15625 C-48.69305593 22.64384626 -50.81977897 20.61336148 -53.25 18.375 C-54.58804688 17.14910156 -54.58804688 17.14910156 -55.953125 15.8984375 C-56.62859375 15.27195312 -57.3040625 14.64546875 -58 14 C-57.67 13.01 -57.34 12.02 -57 11 C-54.12695312 10.08032227 -54.12695312 10.08032227 -50.28125 9.31640625 C-49.59549896 9.17589844 -48.90974792 9.03539062 -48.20321655 8.890625 C-45.97108255 8.43570784 -43.73578853 7.99906616 -41.5 7.5625 C-39.22096286 7.10353189 -36.94284044 6.64021055 -34.6647644 6.17649841 C-33.16778053 5.87204139 -31.67048629 5.56910629 -30.17288208 5.26771545 C-23.47818739 3.91515182 -16.85674646 2.32877678 -10.2421875 0.62890625 C-7 0 -7 0 0 0 Z " fill="#EDE2CC" transform="translate(706,355)"/>
<path d="M0 0 C1.28390625 0.00902344 2.5678125 0.01804687 3.890625 0.02734375 C5.30601562 0.04474609 5.30601562 0.04474609 6.75 0.0625 C6.75 0.7225 6.75 1.3825 6.75 2.0625 C7.41 2.0625 8.07 2.0625 8.75 2.0625 C9.08 3.3825 9.41 4.7025 9.75 6.0625 C10.41 6.0625 11.07 6.0625 11.75 6.0625 C14.75 10.44711538 14.75 10.44711538 14.75 13.0625 C15.41 13.0625 16.07 13.0625 16.75 13.0625 C19.75 18.8125 19.75 18.8125 19.75 21.0625 C20.41 21.0625 21.07 21.0625 21.75 21.0625 C22.245 23.5375 22.245 23.5375 22.75 26.0625 C23.41 26.0625 24.07 26.0625 24.75 26.0625 C25.245 28.0425 25.245 28.0425 25.75 30.0625 C26.41 30.0625 27.07 30.0625 27.75 30.0625 C27.75 31.0525 27.75 32.0425 27.75 33.0625 C28.41 33.0625 29.07 33.0625 29.75 33.0625 C33.75 39.6875 33.75 39.6875 33.75 43.0625 C34.41 43.0625 35.07 43.0625 35.75 43.0625 C38.75 47.44711538 38.75 47.44711538 38.75 50.0625 C39.41 50.0625 40.07 50.0625 40.75 50.0625 C41.245 52.5375 41.245 52.5375 41.75 55.0625 C42.41 55.0625 43.07 55.0625 43.75 55.0625 C46.75 59.44711538 46.75 59.44711538 46.75 62.0625 C47.41 62.0625 48.07 62.0625 48.75 62.0625 C49.245 64.5375 49.245 64.5375 49.75 67.0625 C50.41 67.0625 51.07 67.0625 51.75 67.0625 C54.04648649 69.6239657 54.75 70.54217572 54.75 74.0625 C55.41 74.0625 56.07 74.0625 56.75 74.0625 C57.08 75.7125 57.41 77.3625 57.75 79.0625 C58.41 79.0625 59.07 79.0625 59.75 79.0625 C62.75 83.44711538 62.75 83.44711538 62.75 86.0625 C63.41 86.0625 64.07 86.0625 64.75 86.0625 C65.41 87.3825 66.07 88.7025 66.75 90.0625 C67.08 60.3625 67.41 30.6625 67.75 0.0625 C93.75 0.0625 93.75 0.0625 96.75 1.0625 C96.95866223 11.41632106 97.1441711 21.77044936 97.3125 32.125 C97.3315999 33.29876127 97.3315999 33.29876127 97.35108566 34.49623489 C97.76486752 60.33978081 97.73303066 86.15680059 97.3125 112 C97.29327925 113.18234159 97.29327925 113.18234159 97.2736702 114.38856888 C97.11670312 123.94689577 96.94261742 133.5048223 96.75 143.0625 C92.67512506 143.18616555 88.60097699 143.27686476 84.5246582 143.3371582 C83.13839696 143.36229219 81.75226813 143.39640592 80.36645508 143.43969727 C78.37378963 143.50038396 76.38015467 143.52604879 74.38671875 143.55078125 C73.18748779 143.57696533 71.98825684 143.60314941 70.75268555 143.63012695 C67.75 143.0625 67.75 143.0625 65.83520508 140.71948242 C64.75 138.0625 64.75 138.0625 64.75 135.0625 C64.09 135.0625 63.43 135.0625 62.75 135.0625 C62.255 132.5875 62.255 132.5875 61.75 130.0625 C61.09 130.0625 60.43 130.0625 59.75 130.0625 C57.70830515 127.15701118 56.75 125.66107954 56.75 122.0625 C56.09 122.0625 55.43 122.0625 54.75 122.0625 C54.42 120.4125 54.09 118.7625 53.75 117.0625 C53.09 117.0625 52.43 117.0625 51.75 117.0625 C49.70830515 114.15701118 48.75 112.66107954 48.75 109.0625 C48.09 109.0625 47.43 109.0625 46.75 109.0625 C46.42 107.4125 46.09 105.7625 45.75 104.0625 C45.09 104.0625 44.43 104.0625 43.75 104.0625 C40.75 98.3125 40.75 98.3125 40.75 96.0625 C40.09 96.0625 39.43 96.0625 38.75 96.0625 C38.42 94.4125 38.09 92.7625 37.75 91.0625 C37.09 91.0625 36.43 91.0625 35.75 91.0625 C32.75 86.67788462 32.75 86.67788462 32.75 84.0625 C32.09 84.0625 31.43 84.0625 30.75 84.0625 C30.42 82.4125 30.09 80.7625 29.75 79.0625 C29.09 79.0625 28.43 79.0625 27.75 79.0625 C26.2421875 77.1640625 26.2421875 77.1640625 24.625 74.6875 C24.08617187 73.87539063 23.54734375 73.06328125 22.9921875 72.2265625 C21.75 70.0625 21.75 70.0625 21.75 68.0625 C21.09 68.0625 20.43 68.0625 19.75 68.0625 C17.45351351 65.5010343 16.75 64.58282428 16.75 61.0625 C16.09 61.0625 15.43 61.0625 14.75 61.0625 C14.255 59.0825 14.255 59.0825 13.75 57.0625 C13.09 57.0625 12.43 57.0625 11.75 57.0625 C11.75 56.0725 11.75 55.0825 11.75 54.0625 C11.09 54.0625 10.43 54.0625 9.75 54.0625 C9.75 83.4325 9.75 112.8025 9.75 143.0625 C1.875 144.1875 1.875 144.1875 -2.52734375 143.94140625 C-3.45224609 143.89306641 -4.37714844 143.84472656 -5.33007812 143.79492188 C-6.27302734 143.73884766 -7.21597656 143.68277344 -8.1875 143.625 C-9.15751953 143.57279297 -10.12753906 143.52058594 -11.12695312 143.46679688 C-13.50170788 143.33811558 -15.87593229 143.20320204 -18.25 143.0625 C-18.24777939 142.50128952 -18.24555878 141.94007904 -18.24327087 141.36186218 C-18.08744103 106.489876 -18.08744103 106.489876 -18.6875 71.625 C-18.70714813 70.89534027 -18.72679626 70.16568054 -18.74703979 69.41390991 C-18.69715829 62.24277981 -18.69715829 62.24277981 -19.7557373 55.21061707 C-20.33520382 52.69219533 -20.36979862 50.41953115 -20.36352539 47.83496094 C-20.36344986 46.79418396 -20.36337433 45.75340698 -20.36329651 44.68109131 C-20.35813522 43.56429993 -20.35297394 42.44750854 -20.34765625 41.296875 C-20.3462413 40.14834045 -20.34482635 38.99980591 -20.34336853 37.81646729 C-20.33777143 34.14845169 -20.32521944 30.48049715 -20.3125 26.8125 C-20.30748463 24.32552171 -20.30292178 21.83854247 -20.29882812 19.3515625 C-20.28780295 13.2551875 -20.27106769 7.15884811 -20.25 1.0625 C-18.3429225 0.89615001 -16.43565896 0.73193198 -14.52832031 0.56860352 C-12.93519012 0.43108421 -12.93519012 0.43108421 -11.30987549 0.29078674 C-7.51960906 0.00800805 -3.80062791 -0.035191 0 0 Z " fill="#EFE7D7" transform="translate(296.25,446.9375)"/>
<path d="M0 0 C0.92028488 0.0141243 1.84056976 0.0282486 2.78874207 0.0428009 C4.71542536 0.07556516 6.64205178 0.11185683 8.56860352 0.15161133 C11.46438935 0.20672522 14.35970345 0.23543466 17.25585938 0.26367188 C36.2487101 0.56929813 54.53208592 3.70091128 69.66796875 16.01953125 C73.66796875 20.30524554 73.66796875 20.30524554 73.66796875 23.01953125 C74.32796875 23.01953125 74.98796875 23.01953125 75.66796875 23.01953125 C77.70232406 26.74918264 78.66796875 28.68858167 78.66796875 33.01953125 C79.32796875 33.01953125 79.98796875 33.01953125 80.66796875 33.01953125 C81.57729787 37.68257097 81.85098666 42.21945888 81.85546875 46.95703125 C81.86771484 47.63443359 81.87996094 48.31183594 81.89257812 49.00976562 C81.91139656 55.55230834 80.26200527 61.06578547 77.54296875 66.95703125 C77.18976563 67.72917969 76.8365625 68.50132812 76.47265625 69.296875 C76.20710937 69.86535156 75.9415625 70.43382812 75.66796875 71.01953125 C75.00796875 71.01953125 74.34796875 71.01953125 73.66796875 71.01953125 C73.60609375 71.57640625 73.54421875 72.13328125 73.48046875 72.70703125 C72.31989185 76.01021167 70.26583429 77.73847858 67.66796875 80.01953125 C67.00796875 80.01953125 66.34796875 80.01953125 65.66796875 80.01953125 C65.17296875 81.50453125 65.17296875 81.50453125 64.66796875 83.01953125 C60.69740477 85.79335983 56.57029177 87.63232163 51.66796875 87.01953125 C52.16296875 87.78265625 52.65796875 88.54578125 53.16796875 89.33203125 C54.66796875 92.01953125 54.66796875 92.01953125 54.66796875 95.01953125 C55.32796875 95.01953125 55.98796875 95.01953125 56.66796875 95.01953125 C56.99796875 96.66953125 57.32796875 98.31953125 57.66796875 100.01953125 C58.32796875 100.01953125 58.98796875 100.01953125 59.66796875 100.01953125 C59.66796875 101.00953125 59.66796875 101.99953125 59.66796875 103.01953125 C60.32796875 103.01953125 60.98796875 103.01953125 61.66796875 103.01953125 C62.11527344 103.92574219 62.56257812 104.83195313 63.0234375 105.765625 C63.63363192 106.99633318 64.24434432 108.22678462 64.85546875 109.45703125 C65.17136963 110.09358643 65.48727051 110.7301416 65.81274414 111.38598633 C68.00110499 115.7654774 70.31716041 120.04051915 72.8203125 124.25 C73.66796875 126.01953125 73.66796875 126.01953125 73.66796875 129.01953125 C74.32796875 129.01953125 74.98796875 129.01953125 75.66796875 129.01953125 C76.67566395 130.78599695 77.67388589 132.55786948 78.66796875 134.33203125 C79.22484375 135.31816406 79.78171875 136.30429687 80.35546875 137.3203125 C81.66796875 140.01953125 81.66796875 140.01953125 81.66796875 143.01953125 C77.45090631 143.21202864 73.23355276 143.39071139 69.01538086 143.55664062 C67.58065119 143.6150223 66.14606958 143.67716959 64.71166992 143.74316406 C62.64920003 143.83739945 60.58657595 143.91805698 58.5234375 143.99609375 C57.28231201 144.04846191 56.04118652 144.10083008 54.76245117 144.15478516 C51.66796875 144.01953125 51.66796875 144.01953125 48.66796875 142.01953125 C48.66796875 140.69953125 48.66796875 139.37953125 48.66796875 138.01953125 C48.00796875 138.01953125 47.34796875 138.01953125 46.66796875 138.01953125 C46.33796875 136.03953125 46.00796875 134.05953125 45.66796875 132.01953125 C45.00796875 132.01953125 44.34796875 132.01953125 43.66796875 132.01953125 C43.66796875 130.69953125 43.66796875 129.37953125 43.66796875 128.01953125 C43.00796875 128.01953125 42.34796875 128.01953125 41.66796875 128.01953125 C41.3534375 127.37886719 41.03890625 126.73820313 40.71484375 126.078125 C38.70083514 122.00764375 36.68920953 117.97996388 34.35546875 114.08203125 C32.66796875 111.01953125 32.66796875 111.01953125 32.66796875 108.01953125 C32.00796875 108.01953125 31.34796875 108.01953125 30.66796875 108.01953125 C30.41402344 107.42785156 30.16007813 106.83617187 29.8984375 106.2265625 C29.55425781 105.43636719 29.21007812 104.64617187 28.85546875 103.83203125 C28.51902344 103.05472656 28.18257812 102.27742187 27.8359375 101.4765625 C27.45050781 100.66574219 27.06507813 99.85492187 26.66796875 99.01953125 C26.32805908 98.16061279 25.98814941 97.30169434 25.63793945 96.41674805 C23.96582869 93.90953331 23.96582869 93.90953331 21.83122253 93.52278137 C19.53731976 93.30100155 17.28490716 93.22404515 14.98046875 93.20703125 C14.18318359 93.18189453 13.38589844 93.15675781 12.56445312 93.13085938 C10.59948855 93.0720281 8.63367484 93.04290721 6.66796875 93.01953125 C6.67240997 93.64149384 6.6768512 94.26345642 6.681427 94.90426636 C6.72557115 101.36014516 6.75579793 107.8159813 6.77783203 114.27197266 C6.78790829 116.68344869 6.80156956 119.09491247 6.81884766 121.50634766 C6.84302465 124.9665021 6.85443544 128.42649545 6.86328125 131.88671875 C6.87360382 132.97008514 6.88392639 134.05345154 6.89456177 135.16964722 C6.89471283 136.17053375 6.89486389 137.17142029 6.89501953 138.20263672 C6.89946075 139.08644012 6.90390198 139.97024353 6.90847778 140.88082886 C6.66796875 143.01953125 6.66796875 143.01953125 4.66796875 145.01953125 C2.28540039 145.27832031 2.28540039 145.27832031 -0.671875 145.28515625 C-1.73470703 145.28773438 -2.79753906 145.2903125 -3.89257812 145.29296875 C-5.56416992 145.28136719 -5.56416992 145.28136719 -7.26953125 145.26953125 C-8.38005859 145.27726563 -9.49058594 145.285 -10.63476562 145.29296875 C-11.69888672 145.29039062 -12.76300781 145.2878125 -13.859375 145.28515625 C-14.83640381 145.28290039 -15.81343262 145.28064453 -16.82006836 145.27832031 C-19.33203125 145.01953125 -19.33203125 145.01953125 -22.33203125 143.01953125 C-22.73075867 141.1870575 -22.73075867 141.1870575 -22.7644043 138.90893555 C-22.78419342 138.03912048 -22.80398254 137.16930542 -22.82437134 136.27313232 C-22.8307663 135.30643616 -22.83716125 134.33973999 -22.84375 133.34375 C-22.86174652 132.31123108 -22.87974304 131.27871216 -22.89828491 130.21490479 C-22.95416324 126.71231872 -22.98721737 123.20990885 -23.01953125 119.70703125 C-23.05268529 117.23314593 -23.08647499 114.75926905 -23.12084961 112.28540039 C-23.58533261 75.20078348 -23.41980041 38.10607974 -23.33203125 1.01953125 C-15.53339497 0.33394898 -7.82819257 -0.1341832 0 0 Z M5.66796875 29.01953125 C5.99796875 41.88953125 6.32796875 54.75953125 6.66796875 68.01953125 C10.56609375 68.08140625 14.46421875 68.14328125 18.48046875 68.20703125 C19.68550049 68.23434326 20.89053223 68.26165527 22.13208008 68.28979492 C30.65062583 68.35441885 40.01892138 67.99321729 46.66796875 62.01953125 C46.66796875 61.35953125 46.66796875 60.69953125 46.66796875 60.01953125 C47.32796875 60.01953125 47.98796875 60.01953125 48.66796875 60.01953125 C51.85869693 51.06025496 51.41824484 45.00376648 48.66796875 36.01953125 C48.00796875 36.01953125 47.34796875 36.01953125 46.66796875 36.01953125 C46.17296875 34.53453125 46.17296875 34.53453125 45.66796875 33.01953125 C40.09581441 28.75847205 33.6292088 28.89067761 26.859375 28.921875 C25.73990479 28.92437256 24.62043457 28.92687012 23.46704102 28.92944336 C22.06897217 28.93854736 20.67090332 28.94765137 19.23046875 28.95703125 C14.75484375 28.97765625 10.27921875 28.99828125 5.66796875 29.01953125 Z " fill="#F5EEE0" transform="translate(688.33203125,446.98046875)"/>
<path d="M0 0 C1.01660202 -0.00807175 2.03320404 -0.01614349 3.08061218 -0.02445984 C5.23316769 -0.03826348 7.38574474 -0.04900219 9.53833008 -0.05688477 C11.70929517 -0.06833722 13.88023363 -0.08868033 16.05102539 -0.1184082 C29.49010204 -0.3021115 41.60413951 0.37709679 54.51171875 4.23828125 C55.37297363 4.47256836 56.23422852 4.70685547 57.12158203 4.94824219 C64.40434181 6.96242881 71.14025186 10.92727814 77.82666016 14.37158203 C79.71416585 15.34240863 81.61034328 16.2949253 83.51171875 17.23828125 C83.51171875 17.89828125 83.51171875 18.55828125 83.51171875 19.23828125 C84.094375 19.35300781 84.67703125 19.46773438 85.27734375 19.5859375 C87.6769501 20.28652187 89.24032808 21.2202072 91.26171875 22.67578125 C91.8753125 23.10761719 92.48890625 23.53945313 93.12109375 23.984375 C93.58 24.39816406 94.03890625 24.81195313 94.51171875 25.23828125 C94.51171875 25.89828125 94.51171875 26.55828125 94.51171875 27.23828125 C95.21683594 27.45484375 95.92195312 27.67140625 96.6484375 27.89453125 C100.20897599 29.56550702 102.62812134 31.95219394 105.32421875 34.73828125 C105.82630859 35.23714844 106.32839844 35.73601562 106.84570312 36.25 C110.51171875 39.97088116 110.51171875 39.97088116 110.51171875 42.23828125 C111.17171875 42.23828125 111.83171875 42.23828125 112.51171875 42.23828125 C112.51171875 42.89828125 112.51171875 43.55828125 112.51171875 44.23828125 C113.17171875 44.23828125 113.83171875 44.23828125 114.51171875 44.23828125 C114.84171875 45.55828125 115.17171875 46.87828125 115.51171875 48.23828125 C116.17171875 48.23828125 116.83171875 48.23828125 117.51171875 48.23828125 C120.51171875 52.62289663 120.51171875 52.62289663 120.51171875 55.23828125 C121.17171875 55.23828125 121.83171875 55.23828125 122.51171875 55.23828125 C124.24739213 58.43660074 125.9769419 61.63792847 127.69140625 64.84765625 C128.72010619 66.76377544 129.759189 68.67464891 130.83203125 70.56640625 C133.47708386 75.3862799 134.25813945 79.7609684 134.51171875 85.23828125 C135.17171875 85.23828125 135.83171875 85.23828125 136.51171875 85.23828125 C140.88550422 99.20523619 142.68700942 112.12665032 142.64208984 126.77734375 C142.63671186 128.86595863 142.64207278 130.95436023 142.6484375 133.04296875 C142.6477769 134.39192755 142.64649612 135.74088622 142.64453125 137.08984375 C142.64340332 138.29463379 142.64227539 139.49942383 142.64111328 140.74072266 C142.41251191 146.91986079 141.43061205 152.0131145 138.94921875 157.67578125 C138.49417969 158.72636719 138.03914062 159.77695312 137.5703125 160.859375 C137.22097656 161.64441406 136.87164063 162.42945313 136.51171875 163.23828125 C135.85171875 163.23828125 135.19171875 163.23828125 134.51171875 163.23828125 C134.44984375 164.00140625 134.38796875 164.76453125 134.32421875 165.55078125 C133.05562035 171.30826629 130.66342732 179.78346247 125.51171875 183.23828125 C122.82421875 182.92578125 122.82421875 182.92578125 120.51171875 182.23828125 C120.46273437 181.59503906 120.41375 180.95179688 120.36328125 180.2890625 C119.93889692 175.1598657 119.33114254 170.17360602 118.38671875 165.11328125 C117.0552534 156.89764689 116.96132919 147.30202707 119.0390625 139.17578125 C121.2733004 130.01725232 119.4390483 119.23988417 118.13671875 110.05078125 C118.01071289 109.15431885 117.88470703 108.25785645 117.75488281 107.33422852 C117.09801398 103.0125722 116.25701234 99.27051126 114.51171875 95.23828125 C114.38671875 91.92578125 114.38671875 91.92578125 114.51171875 89.23828125 C113.85171875 89.23828125 113.19171875 89.23828125 112.51171875 89.23828125 C112.24617187 88.47902344 111.980625 87.71976562 111.70703125 86.9375 C111.17722656 85.44669922 111.17722656 85.44669922 110.63671875 83.92578125 C110.11464844 82.44658203 110.11464844 82.44658203 109.58203125 80.9375 C108.55865951 78.08233748 108.55865951 78.08233748 106.51171875 75.23828125 C106.51171875 74.24828125 106.51171875 73.25828125 106.51171875 72.23828125 C105.85171875 72.23828125 105.19171875 72.23828125 104.51171875 72.23828125 C103.00390625 70.12109375 103.00390625 70.12109375 101.38671875 67.36328125 C100.84789062 66.45835937 100.3090625 65.5534375 99.75390625 64.62109375 C98.51171875 62.23828125 98.51171875 62.23828125 98.51171875 60.23828125 C97.85171875 60.23828125 97.19171875 60.23828125 96.51171875 60.23828125 C93.51171875 56.77674279 93.51171875 56.77674279 93.51171875 54.23828125 C92.85171875 54.23828125 92.19171875 54.23828125 91.51171875 54.23828125 C89.88671875 52.86328125 89.88671875 52.86328125 88.51171875 51.23828125 C88.51171875 50.57828125 88.51171875 49.91828125 88.51171875 49.23828125 C87.52171875 48.90828125 86.53171875 48.57828125 85.51171875 48.23828125 C85.51171875 47.57828125 85.51171875 46.91828125 85.51171875 46.23828125 C84.95226562 45.98433594 84.3928125 45.73039062 83.81640625 45.46875 C81.18703651 44.06493395 78.99438696 42.37457018 76.63671875 40.55078125 C53.38716175 23.57491423 23.34824798 18.70393936 -4.73828125 22.84375 C-12.406154 24.08256326 -19.38606971 26.06677644 -26.48828125 29.23828125 C-27.2359375 29.49996094 -27.98359375 29.76164062 -28.75390625 30.03125 C-42.05661274 34.72243623 -56.00923451 43.90807829 -64.67578125 55.05078125 C-65.27390625 55.77265625 -65.87203125 56.49453125 -66.48828125 57.23828125 C-67.14828125 57.23828125 -67.80828125 57.23828125 -68.48828125 57.23828125 C-68.79765625 57.85703125 -69.10703125 58.47578125 -69.42578125 59.11328125 C-70.11328125 60.48828125 -70.80078125 61.86328125 -71.48828125 63.23828125 C-72.14828125 63.23828125 -72.80828125 63.23828125 -73.48828125 63.23828125 C-73.81828125 64.88828125 -74.14828125 66.53828125 -74.48828125 68.23828125 C-75.14828125 68.23828125 -75.80828125 68.23828125 -76.48828125 68.23828125 C-76.67390625 69.38296875 -76.67390625 69.38296875 -76.86328125 70.55078125 C-77.48828125 73.23828125 -77.48828125 73.23828125 -79.48828125 76.23828125 C-80.14828125 76.23828125 -80.80828125 76.23828125 -81.48828125 76.23828125 C-81.81828125 78.21828125 -82.14828125 80.19828125 -82.48828125 82.23828125 C-83.14828125 82.23828125 -83.80828125 82.23828125 -84.48828125 82.23828125 C-84.59140625 83.26953125 -84.69453125 84.30078125 -84.80078125 85.36328125 C-85.48828125 89.23828125 -85.48828125 89.23828125 -86.92578125 91.92578125 C-88.89288687 96.09604517 -89.41469 100.08769036 -90.05859375 104.62890625 C-90.48828125 107.23828125 -90.48828125 107.23828125 -91.48828125 109.23828125 C-92.5993335 117.06502712 -92.80447179 124.90676504 -93.05078125 132.80078125 C-93.09396484 134.09564453 -93.13714844 135.39050781 -93.18164062 136.72460938 C-93.2869551 139.89574509 -93.38908742 143.06694918 -93.48828125 146.23828125 C-97.60389291 147.6101518 -101.25959025 147.17070458 -105.55078125 146.92578125 C-106.37900391 146.89033203 -107.20722656 146.85488281 -108.06054688 146.81835938 C-109.24874023 146.75358398 -109.24874023 146.75358398 -110.4609375 146.6875 C-111.54773804 146.63082153 -111.54773804 146.63082153 -112.65649414 146.57299805 C-114.48828125 146.23828125 -114.48828125 146.23828125 -116.48828125 144.23828125 C-116.73120117 141.10546875 -116.73120117 141.10546875 -116.71875 137.11328125 C-116.71829178 136.41058105 -116.71783356 135.70788086 -116.71736145 134.98388672 C-116.7143395 133.49770419 -116.70645484 132.01152481 -116.6940918 130.52539062 C-116.67585331 128.247282 -116.673582 125.96958021 -116.67382812 123.69140625 C-116.63580754 112.53333384 -116.63580754 112.53333384 -115.48828125 110.23828125 C-115.17074661 108.01265208 -114.88366456 105.78262944 -114.61328125 103.55078125 C-113.87106881 98.15187295 -112.86704636 94.09096208 -110.48828125 89.23828125 C-109.98964695 87.8074176 -109.51186766 86.36918219 -109.05078125 84.92578125 C-106.72755284 77.79797052 -103.98128307 70.87498471 -100.48828125 64.23828125 C-99.82828125 64.23828125 -99.16828125 64.23828125 -98.48828125 64.23828125 C-98.36453125 63.47515625 -98.24078125 62.71203125 -98.11328125 61.92578125 C-97.48828125 59.23828125 -97.48828125 59.23828125 -95.48828125 56.23828125 C-94.82828125 56.23828125 -94.16828125 56.23828125 -93.48828125 56.23828125 C-93.15828125 54.58828125 -92.82828125 52.93828125 -92.48828125 51.23828125 C-91.82828125 51.23828125 -91.16828125 51.23828125 -90.48828125 51.23828125 C-90.21886719 50.66207031 -89.94945312 50.08585937 -89.671875 49.4921875 C-88.46767945 47.19904944 -87.1131672 45.23908483 -85.55078125 43.17578125 C-85.04675781 42.50417969 -84.54273438 41.83257812 -84.0234375 41.140625 C-82.59182123 39.36658652 -81.20454884 37.73943083 -79.48828125 36.23828125 C-78.82828125 36.23828125 -78.16828125 36.23828125 -77.48828125 36.23828125 C-77.15828125 35.24828125 -76.82828125 34.25828125 -76.48828125 33.23828125 C-75.82828125 33.23828125 -75.16828125 33.23828125 -74.48828125 33.23828125 C-74.15828125 32.24828125 -73.82828125 31.25828125 -73.48828125 30.23828125 C-72.82828125 30.23828125 -72.16828125 30.23828125 -71.48828125 30.23828125 C-71.48828125 29.57828125 -71.48828125 28.91828125 -71.48828125 28.23828125 C-68.38279962 25.61056602 -64.88315733 23.47153708 -61.48828125 21.23828125 C-60.87758789 20.83448242 -60.26689453 20.43068359 -59.63769531 20.01464844 C-41.46587863 8.07264997 -21.94545957 0.16787726 0 0 Z " fill="#DDB260" transform="translate(659.48828125,287.76171875)"/>
<path d="M0 0 C4.64475959 -0.04944066 9.28936596 -0.08573863 13.93432617 -0.10986328 C15.51443144 -0.11992041 17.0945181 -0.13356785 18.67456055 -0.15087891 C20.9458475 -0.17514022 23.21688836 -0.18648582 25.48828125 -0.1953125 C26.19463211 -0.20563507 26.90098297 -0.21595764 27.6287384 -0.22659302 C31.32197792 -0.22743775 32.83919216 -0.10720523 36 2 C36.1875 5.125 36.1875 5.125 36 8 C36.66 8 37.32 8 38 8 C38.39832031 9.32064453 38.39832031 9.32064453 38.8046875 10.66796875 C39.15789062 11.82941406 39.51109375 12.99085938 39.875 14.1875 C40.22304688 15.33605469 40.57109375 16.48460937 40.9296875 17.66796875 C41.93059597 20.9316175 41.93059597 20.9316175 43.125 23.75 C44.11786058 26.30307007 44.1551809 28.28433419 44 31 C44.66 31 45.32 31 46 31 C47.81933798 36.27608015 49.44998523 41.55775291 50.9375 46.9375 C52.38578116 52.10993273 54.08794812 57.00591385 56.265625 61.9140625 C57 64 57 64 57 68 C57.66 68 58.32 68 59 68 C59.2475 69.27875 59.495 70.5575 59.75 71.875 C60.71473586 76.23669312 62.20645858 80.15540492 63.9296875 84.265625 C65.11977831 87.30600299 66.06728421 90.37136278 67 93.5 C68.17298024 97.42215269 69.42906951 101.21994851 71 105 C73.01508129 109.84878936 74.49618515 114.80136733 75.98828125 119.83203125 C77.14154008 123.44320079 78.56871787 126.85872084 80.16796875 130.29296875 C81.4252567 134.38358165 81.57417655 138.74176548 82 143 C73.09 143 64.18 143 55 143 C52.87788679 137.69471698 50.77529476 132.43348588 48.7890625 127.0859375 C46.13164458 119.94080094 46.13164458 119.94080094 43 113 C18.25 112.505 18.25 112.505 -7 112 C-7.33 114.64 -7.66 117.28 -8 120 C-8.61238899 122.01728138 -9.25976679 124.02604477 -10 126 C-10.66 126 -11.32 126 -12 126 C-12.03738281 126.556875 -12.07476563 127.11375 -12.11328125 127.6875 C-12.17902344 128.450625 -12.24476563 129.21375 -12.3125 130 C-12.39951172 131.11375 -12.39951172 131.11375 -12.48828125 132.25 C-13 135 -13 135 -16 143 C-26.23 143 -36.46 143 -47 143 C-48.12169695 139.63490914 -47.90506078 139.01156538 -46.75 135.8125 C-46.47027344 135.02617188 -46.19054687 134.23984375 -45.90234375 133.4296875 C-45.60457031 132.62789062 -45.30679688 131.82609375 -45 131 C-44.71253906 130.21882812 -44.42507813 129.43765625 -44.12890625 128.6328125 C-43.42925875 126.75146373 -42.71598276 124.87519293 -42 123 C-41.34 123 -40.68 123 -40 123 C-39.67 120.03 -39.34 117.06 -39 114 C-38.34 114 -37.68 114 -37 114 C-36.87625 112.824375 -36.7525 111.64875 -36.625 110.4375 C-36.13564065 106.45879574 -35.1944795 102.82233441 -34 99 C-33.34 99 -32.68 99 -32 99 C-31.896875 97.700625 -31.79375 96.40125 -31.6875 95.0625 C-31.00722168 88.96873931 -29.31714607 83.47623462 -26.4375 78.0625 C-24.46203049 73.85389104 -23.76654898 69.56322096 -23 65 C-22.34 65 -21.68 65 -21 65 C-20.87625 63.783125 -20.7525 62.56625 -20.625 61.3125 C-20.21108694 57.93520941 -19.45426549 55.10243305 -18 52 C-17.34 52 -16.68 52 -16 52 C-15.9175 50.72125 -15.835 49.4425 -15.75 48.125 C-15.24709787 43.53422202 -13.86215655 39.78074489 -12.05078125 35.55859375 C-9.85536946 30.21288846 -8.36990753 24.60765887 -7 19 C-6.34 19 -5.68 19 -5 19 C-4.814375 17.205625 -4.814375 17.205625 -4.625 15.375 C-4.17674946 11.72403187 -3.29553163 8.45475101 -2 5 C-1.34 5 -0.68 5 0 5 C0 3.35 0 1.7 0 0 Z M17 38 C16.49166409 39.24663331 15.99368855 40.49749387 15.5 41.75 C15.2215625 42.44609375 14.943125 43.1421875 14.65625 43.859375 C13.80459673 46.26422695 13.80459673 46.26422695 14 50 C13.34 50 12.68 50 12 50 C11.87882813 50.65226562 11.75765625 51.30453125 11.6328125 51.9765625 C10.70826856 56.79841474 9.64177046 61.36441283 8 66 C7.22980874 68.53122318 6.47990699 71.06803064 5.73046875 73.60546875 C5.1448907 75.52503742 4.4897509 77.42332644 3.8125 79.3125 C2.75884208 82.32973708 2.75884208 82.32973708 3 87 C13.56 87 24.12 87 35 87 C34.01 83.04 33.02 79.08 32 75 C31.34 75 30.68 75 30 75 C29.87625 74.175 29.7525 73.35 29.625 72.5 C28.92897845 68.60227933 27.99119051 64.83260331 27 61 C26.34 61 25.68 61 25 61 C24.87625 59.0509375 24.87625 59.0509375 24.75 57.0625 C24.18095122 51.82560185 22.29331933 47.6863482 20 43 C19.32165413 41.33805262 18.64800425 39.67401097 18 38 C17.67 38 17.34 38 17 38 Z " fill="#F0E9DC" transform="translate(822,447)"/>
<path d="M0 0 C3.42857143 7.28571429 3.42857143 7.28571429 3 12 C3.66 12 4.32 12 5 12 C5.39832031 13.32064453 5.39832031 13.32064453 5.8046875 14.66796875 C6.15789062 15.82941406 6.51109375 16.99085938 6.875 18.1875 C7.22304688 19.33605469 7.57109375 20.48460937 7.9296875 21.66796875 C8.84305211 24.51139945 9.87024302 27.23837182 11 30 C11.44996478 31.3082791 11.88753422 32.62088822 12.3125 33.9375 C13.60992899 37.87542517 14.9788292 41.7834738 16.375 45.6875 C17.01115234 47.46833984 17.01115234 47.46833984 17.66015625 49.28515625 C18.57386294 51.81849462 19.49663747 54.3464641 20.43359375 56.87109375 C20.88863281 58.10988281 21.34367187 59.34867187 21.8125 60.625 C22.23144531 61.75164062 22.65039062 62.87828125 23.08203125 64.0390625 C24 67 24 67 24 71 C24.66 71 25.32 71 26 71 C26.2475 72.27875 26.495 73.5575 26.75 74.875 C27.72990907 79.30891479 29.24488497 83.32942292 30.98046875 87.515625 C33.37838935 93.35883381 35.49392137 98.57902214 35 105 C35.66 105 36.32 105 37 105 C37.24234375 105.82242188 37.4846875 106.64484375 37.734375 107.4921875 C39.58999547 113.67283108 41.59618641 119.68564087 44.05078125 125.65234375 C48.51381748 136.6905527 48.51381748 136.6905527 48 142 C43.57698801 143.47433733 39.25781672 143.18436972 34.625 143.1875 C33.67882812 143.19974609 32.73265625 143.21199219 31.7578125 143.22460938 C22.48016649 143.24415498 22.48016649 143.24415498 19 141 C17.7421875 138.96875 17.7421875 138.96875 16.875 136.5 C16.55273438 135.60410156 16.23046875 134.70820312 15.8984375 133.78515625 C14.82217967 130.44875699 13.8110567 127.10191621 12.90625 123.71484375 C12.05386341 121.16135805 11.04479139 118.78460615 9.94335938 116.33032227 C9.58028687 115.51950699 9.21721436 114.70869171 8.84313965 113.87330627 C8.56490356 113.2551152 8.28666748 112.63692413 8 112 C7.43037033 111.98969254 6.86074066 111.97938507 6.27384949 111.96876526 C0.35294092 111.86070723 -5.56781525 111.74610855 -11.48852539 111.62768555 C-13.69910498 111.58433448 -15.90971809 111.54265954 -18.12036133 111.50268555 C-21.29518749 111.44498734 -24.46984486 111.38129138 -27.64453125 111.31640625 C-28.63524124 111.29969376 -29.62595123 111.28298126 -30.64668274 111.26576233 C-31.56741074 111.24581711 -32.48813873 111.22587189 -33.43676758 111.20532227 C-34.65255241 111.18200584 -34.65255241 111.18200584 -35.89289856 111.15821838 C-38 111 -38 111 -41 110 C-41.144375 110.7425 -41.28875 111.485 -41.4375 112.25 C-41.90187492 114.52027739 -42.41863569 116.75759479 -43 119 C-43.66 119 -44.32 119 -45 119 C-45.0825 120.2375 -45.165 121.475 -45.25 122.75 C-45.96527399 129.3662844 -48.02122388 136.04244777 -51 142 C-60.9 142 -70.8 142 -81 142 C-79.88558609 131.97027482 -79.88558609 131.97027482 -78.1875 128.75 C-75.42807712 123.05932204 -73.76063511 117.05920701 -72 111 C-71.34 111 -70.68 111 -70 111 C-70.12375 109.7625 -70.12375 109.7625 -70.25 108.5 C-69.98964508 104.85503108 -68.93685256 102.83177605 -67.21484375 99.67578125 C-64.65105205 94.02884455 -63.24166262 87.91885854 -61.56933594 81.95996094 C-60.79078996 79.27978636 -59.90739675 76.63894285 -59 74 C-58.34 74 -57.68 74 -57 74 C-56.92652344 73.14728516 -56.92652344 73.14728516 -56.8515625 72.27734375 C-56.36939815 67.29774988 -55.51267717 62.79014436 -54 58 C-53.45642172 56.18807239 -52.91483928 54.37554511 -52.375 52.5625 C-51.91712214 51.04152948 -51.45894807 49.52064794 -51 48 C-50.34 48 -49.68 48 -49 48 C-48.95101562 47.34773438 -48.90203125 46.69546875 -48.8515625 46.0234375 C-48.42543349 41.04213628 -47.799154 36.69779101 -46 32 C-45.45270265 30.37688775 -44.91135086 28.75176228 -44.375 27.125 C-43.91666667 25.75 -43.45833333 24.375 -43 23 C-42.34 23 -41.68 23 -41 23 C-40.95101562 22.40832031 -40.90203125 21.81664062 -40.8515625 21.20703125 C-40.43065877 16.75851423 -39.84634927 13.10299837 -38 9 C-36.96494742 6.01153937 -35.98239878 3.00614026 -35 0 C-23.31347218 -1.50793907 -11.69514544 -1.33658805 0 0 Z M-17 36 C-19.930051 41.2740918 -21.53909617 45.81598321 -22.5703125 51.75 C-23.06531274 54.34200127 -23.95442728 56.58211309 -25 59 C-26.24019514 62.9272846 -27 65.86110141 -27 70 C-27.66 70 -28.32 70 -29 70 C-29.13277344 70.71027344 -29.26554687 71.42054688 -29.40234375 72.15234375 C-29.57894531 73.07144531 -29.75554687 73.99054688 -29.9375 74.9375 C-30.11152344 75.85402344 -30.28554688 76.77054688 -30.46484375 77.71484375 C-31 80 -31 80 -32 81 C-32 82.65 -32 84.3 -32 86 C-21.44 86 -10.88 86 0 86 C-0.33 83.03 -0.66 80.06 -1 77 C-1.66 77 -2.32 77 -3 77 C-2.9071875 76.0409375 -2.9071875 76.0409375 -2.8125 75.0625 C-3.07560776 70.76507326 -4.52817421 67.02123832 -6 63 C-6.66 63 -7.32 63 -8 63 C-8.33 60.03 -8.66 57.06 -9 54 C-9.66 54 -10.32 54 -11 54 C-11.12246094 53.14148438 -11.24492187 52.28296875 -11.37109375 51.3984375 C-12.00127116 47.99313102 -12.93562279 44.89657899 -14.0625 41.625 C-14.42472656 40.56539063 -14.78695312 39.50578125 -15.16015625 38.4140625 C-15.57587891 37.21910156 -15.57587891 37.21910156 -16 36 C-16.33 36 -16.66 36 -17 36 Z " fill="#F1E9DC" transform="translate(487,448)"/>
<path d="M0 0 C0.83640015 0.00202423 1.67280029 0.00404846 2.5345459 0.00613403 C3.84908752 0.00350555 3.84908752 0.00350555 5.19018555 0.00082397 C8.10186717 -0.00359576 11.0134886 -0.00065613 13.9251709 0.00271606 C15.93916841 0.00204306 17.95316585 0.00107306 19.96716309 -0.00018311 C24.19405895 -0.00166024 28.42093373 0.00049499 32.64782715 0.00515747 C38.07897622 0.01085476 43.51007589 0.00757584 48.94122314 0.00158501 C53.10176977 -0.00202018 57.26230459 -0.00088222 61.42285156 0.0017128 C63.42602545 0.00238219 65.42920039 0.00155324 67.43237305 -0.00076675 C70.22687642 -0.00329258 73.02129861 0.00054632 75.8157959 0.00613403 C77.07039612 0.00309769 77.07039612 0.00309769 78.3503418 0 C84.06090848 0.02126614 84.06090848 0.02126614 85.1751709 1.13552856 C85.26265297 3.06220364 85.28214424 4.99204717 85.27282715 6.92068481 C85.26799316 8.67542114 85.26799316 8.67542114 85.26306152 10.46560669 C85.25049316 12.31315552 85.25049316 12.31315552 85.2376709 14.19802856 C85.23315918 15.43359497 85.22864746 16.66916138 85.22399902 17.94216919 C85.21216698 21.00666973 85.19568263 24.07107578 85.1751709 27.13552856 C77.99328879 30.72646962 67.14465664 29.22485452 59.2845459 29.01443481 C58.21391907 28.99082382 57.14329224 28.96721283 56.04022217 28.94288635 C52.66837093 28.86718387 49.2968059 28.78276606 45.9251709 28.69802856 C43.61919466 28.644714 41.31320504 28.59197452 39.00720215 28.53982544 C33.39629398 28.41276318 27.78585709 28.27388008 22.1751709 28.13552856 C22.5051709 39.02552856 22.8351709 49.91552856 23.1751709 61.13552856 C41.3251709 61.46552856 59.4751709 61.79552856 78.1751709 62.13552856 C78.1751709 71.04552856 78.1751709 79.95552856 78.1751709 89.13552856 C71.80698509 89.18163771 65.4393872 89.22140428 59.07116699 89.24539185 C56.90838652 89.25540023 54.74561941 89.26901107 52.58288574 89.28640747 C49.45996791 89.31088401 46.33723023 89.3220636 43.2142334 89.33084106 C42.2596524 89.34116364 41.30507141 89.35148621 40.32156372 89.36212158 C34.04976369 89.36315118 28.27394768 88.59508522 22.1751709 87.13552856 C22.18991959 87.79285477 22.20466827 88.45018097 22.21986389 89.12742615 C22.37205192 95.95641682 22.51686189 102.78553541 22.65734863 109.61477661 C22.71078511 112.16494739 22.76611572 114.71507919 22.82336426 117.26516724 C22.90522889 120.92629594 22.98032613 124.58750981 23.05407715 128.24880981 C23.09462975 129.96454948 23.09462975 129.96454948 23.13600159 131.71495056 C23.15609787 132.77582382 23.17619415 133.83669708 23.19689941 134.92971802 C23.22687767 136.33203423 23.22687767 136.33203423 23.25746155 137.76268005 C23.1751709 140.13552856 23.1751709 140.13552856 22.1751709 143.13552856 C17.71685108 143.16444403 13.2585552 143.18229838 8.8001709 143.19802856 C7.52915527 143.20640747 6.25813965 143.21478638 4.9486084 143.22341919 C3.73688965 143.22664185 2.5251709 143.2298645 1.2767334 143.23318481 C0.15605469 143.23842163 -0.96462402 143.24365845 -2.1192627 143.24905396 C-4.8248291 143.13552856 -4.8248291 143.13552856 -6.8248291 142.13552856 C-6.84815714 123.76868475 -6.86580781 105.40184477 -6.87664127 87.03498936 C-6.88180443 78.50754362 -6.88884751 69.98010708 -6.90026855 61.45266724 C-6.91021478 54.02286601 -6.91668238 46.59307144 -6.9189176 39.16326374 C-6.92022481 35.22679537 -6.92331131 31.29034603 -6.93055916 27.35388374 C-6.93731841 23.65299529 -6.93944626 19.95213382 -6.93793678 16.25123978 C-6.93834548 14.23682055 -6.94374117 12.22240429 -6.94924927 10.20799255 C-6.9478746 9.02022217 -6.94649994 7.83245178 -6.94508362 6.60868835 C-6.94600541 5.56982766 -6.9469272 4.53096697 -6.94787693 3.46062565 C-6.70536419 -1.12186609 -3.93680106 0.01466064 0 0 Z " fill="#F0E7D3" transform="translate(120.8248291015625,447.8644714355469)"/>
<path d="M0 0 C1.24652344 -0.01417969 2.49304688 -0.02835937 3.77734375 -0.04296875 C6.93095455 0.17827148 8.37053167 0.70913296 11.0625 2.1875 C11.08582809 20.42395998 11.10347873 38.66041611 11.11431217 56.89688778 C11.11947532 65.36379939 11.12651838 73.83070175 11.13793945 82.29760742 C11.14788572 89.67467094 11.15435329 97.05172775 11.15658849 104.42879778 C11.1578957 108.33732053 11.16098217 112.24582412 11.16823006 116.15434074 C11.17498937 119.82896442 11.17711715 123.50356093 11.17560768 127.17819023 C11.17601638 129.17829611 11.18141204 131.17839898 11.18692017 133.17849731 C11.1855455 134.35785355 11.18417084 135.53720978 11.18275452 136.75230408 C11.18367631 137.78379043 11.1845981 138.81527678 11.18554783 139.87802029 C11.0625 142.1875 11.0625 142.1875 10.0625 143.1875 C7.98987924 143.27517112 5.91429706 143.29445873 3.83984375 143.28515625 C2.57978516 143.28193359 1.31972656 143.27871094 0.02148438 143.27539062 C-1.31901109 143.26703403 -2.65950588 143.25856907 -4 143.25 C-5.34439942 143.2449866 -6.6888006 143.24042342 -8.03320312 143.23632812 C-11.33467941 143.22449488 -14.63606803 143.20800971 -17.9375 143.1875 C-17.9529612 141.70078545 -17.9529612 141.70078545 -17.96873474 140.18403625 C-18.06651586 130.84078187 -18.16925439 121.49759339 -18.27683926 112.1544466 C-18.33198971 107.35111561 -18.38539703 102.54777844 -18.43481445 97.74438477 C-18.4825743 93.10835243 -18.53492113 88.47239244 -18.59044075 83.83644676 C-18.61081171 82.06825756 -18.62953334 80.30004855 -18.64657402 78.53182411 C-18.67073472 76.05410235 -18.70077295 73.57651602 -18.73217773 71.09887695 C-18.7379332 70.36879425 -18.74368866 69.63871155 -18.74961853 68.88650513 C-18.80289899 65.18523994 -19.17967057 61.80073791 -19.9375 58.1875 C-20.02599287 56.29161304 -20.06535484 54.39306765 -20.06689453 52.49511719 C-20.07004669 51.37756042 -20.07319885 50.26000366 -20.07644653 49.10858154 C-20.0744223 47.91259338 -20.07239807 46.71660522 -20.0703125 45.484375 C-20.07174759 43.63407684 -20.07174759 43.63407684 -20.07321167 41.74639893 C-20.07406518 38.47857895 -20.07004767 35.21080679 -20.06445312 31.94299316 C-20.06249594 29.93333434 -20.06445393 27.92371895 -20.06787109 25.9140625 C-20.07401925 22.06247917 -20.07330908 18.21096095 -20.0703125 14.359375 C-20.07233673 13.15528992 -20.07436096 11.95120483 -20.07644653 10.71063232 C-20.07329437 9.6056842 -20.07014221 8.50073608 -20.06689453 7.36230469 C-20.06570114 5.89600616 -20.06570114 5.89600616 -20.06448364 4.40008545 C-19.9375 2.1875 -19.9375 2.1875 -18.9375 1.1875 C-12.69145938 0.18763974 -6.31426886 0.06871728 0 0 Z " fill="#DCD5C6" transform="translate(242.9375,446.8125)"/>
<path d="M0 0 C0 21.12 0 42.24 0 64 C-4.14067791 62.96483052 -5.90845034 61.83392052 -9 59 C-9 58.34 -9 57.68 -9 57 C-10.485 56.505 -10.485 56.505 -12 56 C-12 55.34 -12 54.68 -12 54 C-12.57621094 53.74605469 -13.15242187 53.49210937 -13.74609375 53.23046875 C-17.01047623 51.44835353 -19.42519168 48.92289703 -22.09765625 46.36328125 C-23.03931641 45.68845703 -23.03931641 45.68845703 -24 45 C-25.485 45.495 -25.485 45.495 -27 46 C-27.73323796 48.01508358 -27.73323796 48.01508358 -28 50 C-28.66 50 -29.32 50 -30 50 C-30 50.66 -30 51.32 -30 52 C-30.66 52 -31.32 52 -32 52 C-32.33 53.32 -32.66 54.64 -33 56 C-33.66 56 -34.32 56 -35 56 C-35.309375 56.61875 -35.61875 57.2375 -35.9375 57.875 C-36.625 59.25 -37.3125 60.625 -38 62 C-38.66 62 -39.32 62 -40 62 C-40.2475 62.721875 -40.495 63.44375 -40.75 64.1875 C-42.12269592 67.27606582 -43.72353296 69.51011418 -46 72 C-46.66 72 -47.32 72 -48 72 C-48.103125 72.5775 -48.20625 73.155 -48.3125 73.75 C-49.10896465 76.35661158 -50.19065277 77.9735311 -52 80 C-52.66 80 -53.32 80 -54 80 C-54.268125 80.7425 -54.53625 81.485 -54.8125 82.25 C-56 85 -56 85 -57.5559082 86.54823303 C-59.87793821 90.49055615 -59.36569822 94.4904518 -59.29296875 98.97827148 C-59.28858795 99.99185226 -59.28420715 101.00543304 -59.2796936 102.04972839 C-59.26827534 104.25197665 -59.24992515 106.4541973 -59.22549438 108.65633965 C-59.18717205 112.15099965 -59.16764641 115.64531737 -59.15307617 119.14015198 C-59.11296864 127.82792726 -59.04068988 136.51538099 -58.96887207 145.20294189 C-58.9094323 152.53229553 -58.86259447 159.86152388 -58.83218384 167.19105721 C-58.81287501 170.61705597 -58.77533762 174.04253716 -58.73706055 177.46836853 C-58.66363174 188.04326143 -58.6826615 197.84423495 -62 208 C-62.66 208 -63.32 208 -64 208 C-63.7889862 207.00636082 -63.7889862 207.00636082 -63.57370949 205.99264812 C-62.21160357 199.14623635 -61.69637514 192.62326538 -61.68115234 185.65356445 C-61.67110672 184.5790654 -61.6610611 183.50456635 -61.65071106 182.39750671 C-61.62010085 178.88610311 -61.60290595 175.37477495 -61.5859375 171.86328125 C-61.56720801 169.41276917 -61.54763329 166.96226342 -61.5272522 164.51176453 C-61.47611327 158.09217067 -61.43639023 151.67255595 -61.39910889 145.25286865 C-61.35895448 138.69001175 -61.30791449 132.12724029 -61.2578125 125.56445312 C-61.16126934 112.70969666 -61.07642565 99.85489102 -61 87 C-62.39560045 89.79120091 -62.21808288 92.20205692 -62.31640625 95.3203125 C-62.35830078 96.57714844 -62.40019531 97.83398438 -62.44335938 99.12890625 C-62.48267578 100.44761719 -62.52199219 101.76632812 -62.5625 103.125 C-62.60569512 104.46485751 -62.64930973 105.80470156 -62.69335938 107.14453125 C-62.79970981 110.42957815 -62.90173808 113.71470281 -63 117 C-63.33 117 -63.66 117 -64 117 C-65.25981943 108.3387414 -65.09020653 99.72998757 -65 91 C-67.29291824 89.85354088 -68.76450359 89.81796574 -71.31640625 89.71875 C-72.16267578 89.68136719 -73.00894531 89.64398438 -73.88085938 89.60546875 C-75.67252002 89.53500285 -77.46418672 89.46469102 -79.25585938 89.39453125 C-80.10083984 89.35714844 -80.94582031 89.31976563 -81.81640625 89.28125 C-82.59443604 89.25095703 -83.37246582 89.22066406 -84.17407227 89.18945312 C-86 89 -86 89 -87 88 C-87.33 121.66 -87.66 155.32 -88 190 C-88.33 190 -88.66 190 -89 190 C-89.06945316 176.63958413 -89.12278754 163.27921108 -89.15543652 149.91865158 C-89.1711049 143.71507143 -89.1923648 137.51161462 -89.22631836 131.30810547 C-89.25886964 125.32347651 -89.27684418 119.33896632 -89.28463173 113.35425568 C-89.29018282 111.06885152 -89.30102248 108.78345399 -89.31719017 106.49810028 C-89.33890786 103.30164952 -89.34196925 100.10569213 -89.34057617 96.90917969 C-89.351362 95.96043472 -89.36214783 95.01168976 -89.3732605 94.03419495 C-89.34304219 87.64352041 -89.34304219 87.64352041 -87.60371399 84.38067627 C-86 83 -86 83 -84 83 C-83.7525 82.46375 -83.505 81.9275 -83.25 81.375 C-81.69347463 78.4176018 -79.96564327 75.70275949 -78 73 C-77.34 73 -76.68 73 -76 73 C-75.7525 72.46375 -75.505 71.9275 -75.25 71.375 C-73.69347463 68.4176018 -71.96564327 65.70275949 -70 63 C-69.34 63 -68.68 63 -68 63 C-67.77441406 62.47535156 -67.54882812 61.95070313 -67.31640625 61.41015625 C-65.53379004 58.14643459 -63.25204961 55.33216691 -60.9375 52.4375 C-60.45015381 51.82269775 -59.96280762 51.20789551 -59.46069336 50.57446289 C-55.67655336 45.81333347 -51.84116615 41.09517165 -47.97265625 36.40234375 C-45.96028639 33.95163591 -43.97606851 31.48003229 -42 29 C-43.1779752 25.96603118 -43.1779752 25.96603118 -45.75 24.15625 C-48.69305593 22.64384626 -50.81977897 20.61336148 -53.25 18.375 C-54.14203125 17.55773437 -55.0340625 16.74046875 -55.953125 15.8984375 C-56.62859375 15.27195312 -57.3040625 14.64546875 -58 14 C-57.67 13.01 -57.34 12.02 -57 11 C-54.12695312 10.08032227 -54.12695312 10.08032227 -50.28125 9.31640625 C-49.59549896 9.17589844 -48.90974792 9.03539062 -48.20321655 8.890625 C-45.97108255 8.43570784 -43.73578853 7.99906616 -41.5 7.5625 C-39.22096286 7.10353189 -36.94284044 6.64021055 -34.6647644 6.17649841 C-33.16778053 5.87204139 -31.67048629 5.56910629 -30.17288208 5.26771545 C-23.47818739 3.91515182 -16.85674646 2.32877678 -10.2421875 0.62890625 C-7 0 -7 0 0 0 Z " fill="#C7A561" transform="translate(706,355)"/>
<path d="M0 0 C2.68120324 2.68120324 2.27237449 4.03748714 2.31884766 7.7890625 C2.33871231 9.01967407 2.35857697 10.25028564 2.37904358 11.51818848 C2.39098016 12.88712338 2.40264417 14.25606068 2.4140625 15.625 C2.43291012 17.05742394 2.45253544 18.48983783 2.47288513 19.92224121 C2.52522648 23.80627519 2.5645586 27.69034351 2.60109329 31.57455444 C2.63291383 34.80289417 2.67201708 38.03113023 2.71086216 41.25939178 C3.10285548 74.17240496 3.0971891 107.08529237 3 140 C10.92 139.67 18.84 139.34 27 139 C27 121.18 27 103.36 27 85 C35.848125 84.95875 44.69625 84.9175 53.8125 84.875 C56.60436768 84.85679199 59.39623535 84.83858398 62.27270508 84.81982422 C64.47997851 84.81398424 66.68725409 84.80888752 68.89453125 84.8046875 C70.04514038 84.79445557 71.19574951 84.78422363 72.38122559 84.77368164 C74.02520325 84.77331909 74.02520325 84.77331909 75.70239258 84.77294922 C77.13135612 84.76628738 77.13135612 84.76628738 78.58918762 84.75949097 C81 85 81 85 84 87 C84 78.42 84 69.84 84 61 C84.33 61 84.66 61 85 61 C85 69.91 85 78.82 85 88 C78.63181419 88.04610915 72.2642163 88.08587571 65.89599609 88.10986328 C63.73321562 88.11987167 61.57044851 88.13348251 59.40771484 88.15087891 C56.28479702 88.17535544 53.16205933 88.18653504 50.0390625 88.1953125 C49.08448151 88.20563507 48.12990051 88.21595764 47.14639282 88.22659302 C40.87459279 88.22762261 35.09877678 87.45955666 29 86 C29.01474869 86.6573262 29.02949738 87.3146524 29.04469299 87.99189758 C29.19688102 94.82088825 29.34169099 101.65000684 29.48217773 108.47924805 C29.53561422 111.02941882 29.59094482 113.57955063 29.64819336 116.12963867 C29.73005799 119.79076738 29.80515523 123.45198125 29.87890625 127.11328125 C29.91945885 128.82902092 29.91945885 128.82902092 29.96083069 130.579422 C29.98092697 131.64029526 30.00102325 132.70116852 30.02172852 133.79418945 C30.05170677 135.19650566 30.05170677 135.19650566 30.08229065 136.62715149 C30 139 30 139 29 142 C24.54168018 142.02891546 20.08338431 142.04676981 15.625 142.0625 C14.35398438 142.07087891 13.08296875 142.07925781 11.7734375 142.08789062 C10.56171875 142.09111328 9.35 142.09433594 8.1015625 142.09765625 C6.98088379 142.10289307 5.86020508 142.10812988 4.70556641 142.11352539 C2 142 2 142 0 141 C0 94.47 0 47.94 0 0 Z " fill="#696967" transform="translate(114,449)"/>
<path d="M0 0 C0.33 0 0.66 0 1 0 C1.97270004 14.76393365 2.13240592 29.46936636 2.09765625 44.26171875 C2.09578608 46.63352936 2.09436501 49.00534035 2.09336853 51.37715149 C2.08959048 57.55336617 2.07980171 63.72955651 2.06866455 69.90576172 C2.05834785 76.23469717 2.05384916 82.56363665 2.04882812 88.89257812 C2.03817415 101.26173105 2.02061682 113.63085967 2 126 C9.92 126 17.84 126 26 126 C25.89171875 120.52792969 25.89171875 120.52792969 25.78125 114.9453125 C25.27208251 88.62795 24.81288494 62.3227702 25 36 C25.66 36 26.32 36 27 36 C27 66.36 27 96.72 27 128 C18.09 128 9.18 128 0 128 C0 85.76 0 43.52 0 0 Z " fill="#FDFCF7" transform="translate(278,461)"/>
<path d="M0 0 C0.94637329 0.02123932 1.89274658 0.04247864 2.86779785 0.06436157 C4.84065098 0.11010008 6.81343386 0.15897309 8.78613281 0.2109375 C11.80259548 0.28961928 14.81916123 0.35644152 17.8359375 0.421875 C19.76564174 0.46805558 21.69533009 0.51490622 23.625 0.5625 C24.52085815 0.58234955 25.41671631 0.6021991 26.33972168 0.62265015 C30.42920335 0.73565751 34.29142072 0.9083872 38.28125 1.9140625 C38.28125 2.2440625 38.28125 2.5740625 38.28125 2.9140625 C8.08625 2.4190625 8.08625 2.4190625 -22.71875 1.9140625 C-22.55375 11.0921875 -22.38875 20.2703125 -22.21875 29.7265625 C-21.78259398 55.97783068 -21.62933937 82.22187772 -21.65625 108.4765625 C-21.65710602 109.31775761 -21.65796204 110.15895271 -21.65884399 111.02563858 C-21.67011127 121.32180592 -21.69083555 131.61792658 -21.71875 141.9140625 C-12.80875 141.9140625 -3.89875 141.9140625 5.28125 141.9140625 C5.28125 125.4140625 5.28125 108.9140625 5.28125 91.9140625 C11.55125 91.9140625 17.82125 91.9140625 24.28125 91.9140625 C23.95125 92.5740625 23.62125 93.2340625 23.28125 93.9140625 C17.67125 93.5840625 12.06125 93.2540625 6.28125 92.9140625 C6.29172363 94.4182373 6.30219727 95.92241211 6.31298828 97.47216797 C6.34910659 103.03692253 6.37212066 108.60166668 6.39111328 114.16650391 C6.40118954 116.57797994 6.41485081 118.98944372 6.43212891 121.40087891 C6.4563059 124.86103335 6.46771669 128.3210267 6.4765625 131.78125 C6.48688507 132.86461639 6.49720764 133.94798279 6.50784302 135.06417847 C6.50799408 136.065065 6.50814514 137.06595154 6.50830078 138.09716797 C6.512742 138.98097137 6.51718323 139.86477478 6.52175903 140.77536011 C6.28125 142.9140625 6.28125 142.9140625 4.28125 144.9140625 C1.89868164 145.17285156 1.89868164 145.17285156 -1.05859375 145.1796875 C-2.12142578 145.18226563 -3.18425781 145.18484375 -4.27929688 145.1875 C-5.95088867 145.17589844 -5.95088867 145.17589844 -7.65625 145.1640625 C-8.76677734 145.17179688 -9.87730469 145.17953125 -11.02148438 145.1875 C-12.08560547 145.18492187 -13.14972656 145.18234375 -14.24609375 145.1796875 C-15.22312256 145.17743164 -16.20015137 145.17517578 -17.20678711 145.17285156 C-19.71875 144.9140625 -19.71875 144.9140625 -22.71875 142.9140625 C-23.11747742 141.08158875 -23.11747742 141.08158875 -23.15112305 138.8034668 C-23.17091217 137.93365173 -23.19070129 137.06383667 -23.21109009 136.16766357 C-23.21748505 135.20096741 -23.22388 134.23427124 -23.23046875 133.23828125 C-23.24846527 132.20576233 -23.26646179 131.17324341 -23.28500366 130.10943604 C-23.34088199 126.60684997 -23.37393612 123.1044401 -23.40625 119.6015625 C-23.43940404 117.12767718 -23.47319374 114.6538003 -23.50756836 112.17993164 C-23.97205136 75.09531473 -23.80651916 38.00061099 -23.71875 0.9140625 C-15.77862584 0.2002607 -7.96880978 -0.2164902 0 0 Z " fill="#2A2A28" transform="translate(688.71875,447.0859375)"/>
<path d="M0 0 C0.33 0.66 0.66 1.32 1 2 C6.94 2.33 12.88 2.66 19 3 C19 3.33 19 3.66 19 4 C10.585 4.495 10.585 4.495 2 5 C1.67 5.66 1.34 6.32 1 7 C1.66 7.33 2.32 7.66 3 8 C2.67 8.66 2.34 9.32 2 10 C1.87713845 12.92841546 1.81422856 15.83456398 1.79467773 18.76416016 C1.78477814 19.67153427 1.77487854 20.57890839 1.76467896 21.51377869 C1.73301391 24.5221798 1.70828676 27.53059673 1.68359375 30.5390625 C1.66302854 32.62129128 1.64203219 34.70351584 1.62062073 36.78573608 C1.5653553 42.27332145 1.51596576 47.76094476 1.46777344 53.24859619 C1.41759103 58.84545276 1.36188797 64.44225404 1.30664062 70.0390625 C1.19900438 81.02599446 1.09757157 92.01297437 1 103 C-0.85505623 101.43495449 -1.89560852 100.5276428 -2.37473011 98.10594082 C-2.3744785 97.02995679 -2.3744785 97.02995679 -2.3742218 95.93223572 C-2.38123611 95.10641495 -2.38825043 94.28059418 -2.39547729 93.42974854 C-2.38783356 92.52730408 -2.38018982 91.62485962 -2.37231445 90.69506836 C-2.37596512 89.74199295 -2.37961578 88.78891754 -2.38337708 87.80696106 C-2.39149487 84.65107504 -2.37786308 81.49570044 -2.36328125 78.33984375 C-2.36276283 76.15173849 -2.36327981 73.96363275 -2.36479187 71.77552795 C-2.36470209 67.18809056 -2.35426079 62.60082872 -2.33618164 58.01342773 C-2.31348101 52.12276569 -2.31295224 46.23235998 -2.31969929 40.34166622 C-2.32303476 35.82334602 -2.31641737 31.30508465 -2.30657005 26.78677559 C-2.30271148 24.61417511 -2.30157254 22.4415681 -2.3031559 20.26896477 C-2.30352525 17.23769448 -2.29094327 14.20675751 -2.2746582 11.17553711 C-2.27713562 10.27106842 -2.27961304 9.36659973 -2.28216553 8.4347229 C-2.2287413 2.2287413 -2.2287413 2.2287413 0 0 Z " fill="#ECDFBF" transform="translate(620,441)"/>
<path d="M0 0 C8.91 0 17.82 0 27 0 C27 30.36 27 60.72 27 92 C26.67 92 26.34 92 26 92 C25.10896011 81.02128473 24.86523534 70.13874287 24.90234375 59.12890625 C24.90421476 57.46882673 24.90563542 55.80874665 24.90663147 54.14866638 C24.91040298 49.83338833 24.92018567 45.51814531 24.93133545 41.20288086 C24.94166669 36.77783685 24.94615388 32.35278704 24.95117188 27.92773438 C24.96181422 19.28514038 24.97882393 10.64257458 25 2 C23.92621094 2.01160156 22.85242188 2.02320313 21.74609375 2.03515625 C20.30989759 2.04454315 18.87369952 2.05364238 17.4375 2.0625 C16.38079102 2.07506836 16.38079102 2.07506836 15.30273438 2.08789062 C14.60341797 2.09111328 13.90410156 2.09433594 13.18359375 2.09765625 C12.23311157 2.10551147 12.23311157 2.10551147 11.26342773 2.11352539 C8.15729419 1.95773291 5.07878063 1.4398258 2 1 C2 14.2 2 27.4 2 41 C1.67 41 1.34 41 1 41 C0.05135075 36.22721102 -0.13171421 31.60534023 -0.09765625 26.7578125 C-0.0962413 25.98944061 -0.09482635 25.22106873 -0.09336853 24.42941284 C-0.08780683 21.99456761 -0.0752616 19.55981706 -0.0625 17.125 C-0.05748004 15.46614717 -0.05291801 13.80729288 -0.04882812 12.1484375 C-0.03870426 8.09889322 -0.0191217 4.04955159 0 0 Z " fill="#FCFBF5" transform="translate(540,449)"/>
<path d="M0 0 C8.25 0 16.5 0 25 0 C25 46.2 25 92.4 25 140 C24.67 140 24.34 140 24 140 C23.04241492 107.81138868 22.9103468 75.63779682 22.9375 43.4375 C22.93835602 42.41519917 22.93921204 41.39289833 22.94009399 40.33961868 C22.9515813 27.55972632 22.97256543 14.77986748 23 2 C15.41 2 7.82 2 0 2 C0 1.34 0 0.68 0 0 Z " fill="#FDFDFA" transform="translate(227,449)"/>
<path d="M0 0 C1.28390625 0.00902344 2.5678125 0.01804687 3.890625 0.02734375 C5.30601562 0.04474609 5.30601562 0.04474609 6.75 0.0625 C6.75 0.7225 6.75 1.3825 6.75 2.0625 C7.41 2.0625 8.07 2.0625 8.75 2.0625 C9.08 3.3825 9.41 4.7025 9.75 6.0625 C8.43 5.4025 7.11 4.7425 5.75 4.0625 C5.75 3.4025 5.75 2.7425 5.75 2.0625 C-2.5 2.0625 -10.75 2.0625 -19.25 2.0625 C-19.085 4.455 -18.92 6.8475 -18.75 9.3125 C-17.79829104 25.19665656 -18.1659554 41.15738242 -18.25 57.0625 C-20.13470109 53.86347325 -20.49497641 51.52764135 -20.47705078 47.83496094 C-20.47689972 46.79418396 -20.47674866 45.75340698 -20.47659302 44.68109131 C-20.46627045 43.56429993 -20.45594788 42.44750854 -20.4453125 41.296875 C-20.4424826 40.14834045 -20.43965271 38.99980591 -20.43673706 37.81646729 C-20.42554263 34.14837219 -20.40043904 30.4805213 -20.375 26.8125 C-20.36496926 24.32552436 -20.35584358 21.83854489 -20.34765625 19.3515625 C-20.32560568 13.25512502 -20.29213525 7.15882996 -20.25 1.0625 C-18.3429225 0.89615001 -16.43565896 0.73193198 -14.52832031 0.56860352 C-12.93519012 0.43108421 -12.93519012 0.43108421 -11.30987549 0.29078674 C-7.51960906 0.00800805 -3.80062791 -0.035191 0 0 Z " fill="#282A28" transform="translate(296.25,446.9375)"/>
<path d="M0 0 C0.33 0 0.66 0 1 0 C1.33 2.31 1.66 4.62 2 7 C2.33 7 2.66 7 3 7 C3.02689216 8.47906892 3.04634621 9.95827483 3.0625 11.4375 C3.07410156 12.26121094 3.08570313 13.08492188 3.09765625 13.93359375 C3 16 3 16 2 17 C1.86656519 18.74422375 1.79655641 20.49338726 1.75390625 22.2421875 C1.72103516 23.30824219 1.68816406 24.37429688 1.65429688 25.47265625 C1.59331235 27.7329763 1.5359946 29.99339839 1.48242188 32.25390625 C1.44826172 33.32253906 1.41410156 34.39117187 1.37890625 35.4921875 C1.3538501 36.47558105 1.32879395 37.45897461 1.30297852 38.47216797 C1 41 1 41 -1 44 C-2.67195977 42.32804023 -2.12785168 40.29109371 -2.13894653 38.05909729 C-2.1369223 37.37057175 -2.13489807 36.6820462 -2.1328125 35.97265625 C-2.13376923 35.26854111 -2.13472595 34.56442596 -2.13571167 33.838974 C-2.13639341 32.34683137 -2.13453952 30.85468579 -2.13037109 29.36254883 C-2.12503063 27.07561582 -2.1303121 24.78887992 -2.13671875 22.50195312 C-2.13605781 21.05468707 -2.13477632 19.60742113 -2.1328125 18.16015625 C-2.13483673 17.47365494 -2.13686096 16.78715363 -2.13894653 16.07984924 C-2.11495764 11.22991527 -2.11495764 11.22991527 -1 9 C-0.77532169 7.46331135 -0.59203195 5.92031946 -0.4375 4.375 C-0.35371094 3.55773437 -0.26992188 2.74046875 -0.18359375 1.8984375 C-0.12300781 1.27195312 -0.06242188 0.64546875 0 0 Z " fill="#705F3F" transform="translate(545,389)"/>
<path d="M0 0 C0.33 0 0.66 0 1 0 C2.15248857 5.50150204 2.14461027 10.85334419 2.1328125 16.4453125 C2.13376923 17.45157684 2.13472595 18.45784119 2.13571167 19.49459839 C2.13639069 21.62107404 2.13455579 23.74755179 2.13037109 25.87402344 C2.12505262 29.09314768 2.13030813 32.31213026 2.13671875 35.53125 C2.14253168 55.48237281 2.14253168 55.48237281 1 65 C0.67 65 0.34 65 0 65 C-1.11911295 43.26738489 -0.82268517 21.7349318 0 0 Z " fill="#DCDBD5" transform="translate(540,484)"/>
<path d="M0 0 C0 1.98 0 3.96 0 6 C-4.74089065 6.65391595 -9.2113205 7 -14 7 C-15.0828125 7.3403125 -15.0828125 7.3403125 -16.1875 7.6875 C-17.0846875 7.8421875 -17.0846875 7.8421875 -18 8 C-19.75 6.5625 -19.75 6.5625 -21 5 C-18.36 4.67 -15.72 4.34 -13 4 C-15.97 3.505 -15.97 3.505 -19 3 C-18.67 2.01 -18.34 1.02 -18 0 C-11.76817361 -1.03863773 -6.25307239 -0.83288874 0 0 Z " fill="#000000" transform="translate(691,319)"/>
<path d="M0 0 C0.763125 0.309375 1.52625 0.61875 2.3125 0.9375 C4.18789677 1.67893593 6.08684652 2.36228217 8 3 C8 3.66 8 4.32 8 5 C8.58265625 5.11472656 9.1653125 5.22945313 9.765625 5.34765625 C12.16523135 6.04824062 13.72860933 6.98192595 15.75 8.4375 C16.36359375 8.86933594 16.9771875 9.30117188 17.609375 9.74609375 C18.06828125 10.15988281 18.5271875 10.57367188 19 11 C19 11.66 19 12.32 19 13 C19.70125 13.185625 20.4025 13.37125 21.125 13.5625 C25.09640051 15.54820026 27.3073418 18.53933276 30 22 C26.33178162 21.15654848 23.27492438 19.89217853 20 18 C19.67 17.01 19.34 16.02 19 15 C16.525 14.505 16.525 14.505 14 14 C14 13.01 14 12.02 14 11 C12.56705502 10.15885829 11.12845595 9.32734313 9.6875 8.5 C8.88699219 8.0359375 8.08648438 7.571875 7.26171875 7.09375 C4.9685882 5.78232114 4.9685882 5.78232114 2 6 C1.34 4.02 0.68 2.04 0 0 Z " fill="#A59F8D" transform="translate(735,302)"/>
<path d="M0 0 C0.66 0.99 1.32 1.98 2 3 C1.67 3.99 1.34 4.98 1 6 C0.34 6 -0.32 6 -1 6 C-0.34 7.65 0.32 9.3 1 11 C-0.65 14.3 -2.3 17.6 -4 21 C5.24 20.67 14.48 20.34 24 20 C24 20.66 24 21.32 24 22 C14.1 22 4.2 22 -6 22 C-4.87899424 11.91094814 -4.87899424 11.91094814 -3 8.1875 C-1.64906789 5.46080247 -0.64298647 2.9805102 0 0 Z " fill="#BDBAB2" transform="translate(412,568)"/>
<path d="M0 0 C0 0.99 0 1.98 0 3 C-8.91 3 -17.82 3 -27 3 C-27 2.01 -27 1.02 -27 0 C-22.87536584 -0.19622046 -18.75028427 -0.38050216 -14.625 -0.5625 C-13.449375 -0.61857422 -12.27375 -0.67464844 -11.0625 -0.73242188 C-9.94101562 -0.78076172 -8.81953125 -0.82910156 -7.6640625 -0.87890625 C-6.10872803 -0.94960327 -6.10872803 -0.94960327 -4.52197266 -1.02172852 C-2 -1 -2 -1 0 0 Z " fill="#A9A9A4" transform="translate(904,587)"/>
<path d="M0 0 C1.39895508 -0.0309375 1.39895508 -0.0309375 2.82617188 -0.0625 C3.71755859 -0.06765625 4.60894531 -0.0728125 5.52734375 -0.078125 C6.75892212 -0.09214355 6.75892212 -0.09214355 8.01538086 -0.10644531 C8.69093018 0.01118164 9.36647949 0.12880859 10.0625 0.25 C10.7225 1.24 11.3825 2.23 12.0625 3.25 C11.0725 3.745 11.0725 3.745 10.0625 4.25 C10.0625 3.59 10.0625 2.93 10.0625 2.25 C3.7925 2.25 -2.4775 2.25 -8.9375 2.25 C-8.9375 12.81 -8.9375 23.37 -8.9375 34.25 C-9.2675 34.25 -9.5975 34.25 -9.9375 34.25 C-10.10475324 29.5688055 -10.26534864 24.88744899 -10.41967773 20.20581055 C-10.47316794 18.61199744 -10.52850255 17.01824515 -10.58569336 15.42456055 C-10.66740942 13.13864258 -10.74256897 10.85259054 -10.81640625 8.56640625 C-10.84344131 7.84973282 -10.87047638 7.13305939 -10.89833069 6.39466858 C-10.95047644 4.68052233 -10.94935628 2.96489824 -10.9375 1.25 C-8.62806288 -1.05943712 -3.10101819 0.01707374 0 0 Z " fill="#E7E6DF" transform="translate(702.9375,536.75)"/>
<path d="M0 0 C10.89 0 21.78 0 33 0 C33.495 2.475 33.495 2.475 34 5 C33.34 4.34 32.68 3.68 32 3 C28.99027343 2.62703444 28.99027343 2.62703444 25.4609375 2.5859375 C24.15898437 2.54726563 22.85703125 2.50859375 21.515625 2.46875 C20.13542138 2.43729237 18.75521296 2.40604509 17.375 2.375 C15.98695459 2.33682066 14.59893289 2.29776895 13.2109375 2.2578125 C9.80742815 2.16327057 6.40392835 2.07772103 3 2 C3 2.66 3 3.32 3 4 C2.01 4 1.02 4 0 4 C0 2.68 0 1.36 0 0 Z " fill="#FCFCF8" transform="translate(453,449)"/>
<path d="M0 0 C0.66 0.33 1.32 0.66 2 1 C2.125 6.75 2.125 6.75 1 9 C0.34 9 -0.32 9 -1 9 C-0.938125 9.721875 -0.87625 10.44375 -0.8125 11.1875 C-1 14 -1 14 -2.4375 16.375 C-4.35094358 19.58958522 -4.59005912 22.31053209 -5 26 C-5.33 26.99 -5.66 27.98 -6 29 C-6.66 29 -7.32 29 -8 29 C-8.99 32.465 -8.99 32.465 -10 36 C-11.20624074 32.38127777 -10.70235768 31.74729802 -9.1875 28.375 C-7.16417686 23.61423968 -5.98185081 19.07289587 -5 14 C-4.34 14 -3.68 14 -3 14 C-2.87625 12.80375 -2.7525 11.6075 -2.625 10.375 C-2.17674946 6.72403187 -1.29553163 3.45475101 0 0 Z " fill="#525250" transform="translate(820,452)"/>
<path d="M0 0 C0.99 0.495 0.99 0.495 2 1 C2.4140625 3.06640625 2.4140625 3.06640625 2.625 5.5625 C2.69976562 6.38878906 2.77453125 7.21507812 2.8515625 8.06640625 C2.92503906 9.02353516 2.92503906 9.02353516 3 10 C3.66 10 4.32 10 5 10 C5.26554687 10.88042969 5.53109375 11.76085937 5.8046875 12.66796875 C6.15789062 13.82941406 6.51109375 14.99085938 6.875 16.1875 C7.22304688 17.33605469 7.57109375 18.48460937 7.9296875 19.66796875 C8.91894069 22.93953374 8.91894069 22.93953374 10.1953125 25.73828125 C11 28 11 28 10 31 C9.71125 30.195625 9.4225 29.39125 9.125 28.5625 C8.26737432 25.8673532 8.26737432 25.8673532 6 25 C5.4375 23.2578125 5.4375 23.2578125 5 21.125 C4.36388761 18.04667039 3.8210698 16.7316047 2 14 C1.55058745 11.61700383 1.18393057 9.21774516 0.875 6.8125 C0.70742188 5.54019531 0.53984375 4.26789063 0.3671875 2.95703125 C0.24601562 1.98121094 0.12484375 1.00539063 0 0 Z " fill="#575656" transform="translate(487,450)"/>
<path d="M0 0 C0 7.92 0 15.84 0 24 C-0.33 24 -0.66 24 -1 24 C-1.33 16.74 -1.66 9.48 -2 2 C-21.8 1.505 -21.8 1.505 -42 1 C-42 0.67 -42 0.34 -42 0 C-36.34017703 -0.16740321 -30.68021782 -0.32798446 -25.02001953 -0.48217773 C-23.09353392 -0.53562804 -21.16709958 -0.59095971 -19.24072266 -0.64819336 C-16.4756984 -0.73001986 -13.71056186 -0.80513291 -10.9453125 -0.87890625 C-10.0806839 -0.90594131 -9.2160553 -0.93297638 -8.32522583 -0.96083069 C-2.22774341 -1.11387171 -2.22774341 -1.11387171 0 0 Z " fill="#D8D8D7" transform="translate(205,450)"/>
<path d="M0 0 C0.33 0.99 0.66 1.98 1 3 C1.66 3 2.32 3 3 3 C4.28317892 6.84953676 4.06643637 9.94738135 4 14 C5.65 12.68 7.3 11.36 9 10 C7.68315519 14.60895683 5.84801255 18.14140235 3 22 C2.67 22 2.34 22 2 22 C1.66076424 19.64655194 1.32849466 17.2924516 1 14.9375 C0.85691406 13.95233398 0.85691406 13.95233398 0.7109375 12.94726562 C0.11112326 8.59861237 -0.09127093 4.38670929 0 0 Z " fill="#EED68A" transform="translate(780,449)"/>
<path d="M0 0 C2.88738087 1.44369043 3.04452908 3.25669538 4.125 6.25 C4.47820313 7.20390625 4.83140625 8.1578125 5.1953125 9.140625 C5.97799354 11.9218023 6.15707613 14.13074276 6 17 C6.66 17 7.32 17 8 17 C8.508783 18.55966218 9.00663469 20.12289241 9.5 21.6875 C9.7784375 22.55761719 10.056875 23.42773438 10.34375 24.32421875 C10.99850805 26.99391677 11.11831495 29.26396684 11 32 C10.01 31.67 9.02 31.34 8 31 C8 28.36 8 25.72 8 23 C7.34 22.67 6.68 22.34 6 22 C5.06124023 19.71305252 4.2239987 17.46349167 3.4375 15.125 C3.21642578 14.48691406 2.99535156 13.84882813 2.76757812 13.19140625 C-0.12987623 4.80542053 -0.12987623 4.80542053 0 0 Z " fill="#766E52" transform="translate(788,356)"/>
<path d="M0 0 C2 1 2 1 2.74609375 2.75 C3.08833984 3.86375 3.08833984 3.86375 3.4375 5 C3.69015625 5.80824219 3.9428125 6.61648438 4.203125 7.44921875 C4.59757813 8.71185547 4.59757813 8.71185547 5 10 C5.8116993 12.32072209 6.62632057 14.64025638 7.44921875 16.95703125 C8 19 8 19 8 23 C8.66 23 9.32 23 10 23 C10.33 25.64 10.66 28.28 11 31 C9 28 9 28 9 25 C8.01 24.67 7.02 24.34 6 24 C5 17.25 5 17.25 5 15 C4.34 15 3.68 15 3 15 C1.08373163 10.01770224 0.4452885 5.27315333 0 0 Z " fill="#676665" transform="translate(871,492)"/>
<path d="M0 0 C0.33 1.32 0.66 2.64 1 4 C9.25 4 17.5 4 26 4 C25.67 4.66 25.34 5.32 25 6 C16.42 6 7.84 6 -1 6 C-0.67 4.02 -0.34 2.04 0 0 Z " fill="#FCFCF6" transform="translate(777,583)"/>
<path d="M0 0 C1.86775659 2.80163489 2.72678306 4.88041803 3.6875 8.0625 C3.95949219 8.94035156 4.23148437 9.81820313 4.51171875 10.72265625 C5 13 5 13 4 15 C4.66 15 5.32 15 6 15 C5.34 16.32 4.68 17.64 4 19 C2.35 14.71 0.7 10.42 -1 6 C-1.99 8.31 -2.98 10.62 -4 13 C-5.39460991 10.21078018 -4.58060045 8.87922897 -3.6875 5.9375 C-3.42324219 5.03902344 -3.15898437 4.14054687 -2.88671875 3.21484375 C-2 1 -2 1 0 0 Z " fill="#AAAAA7" transform="translate(471,479)"/>
<path d="M0 0 C0.99 0.33 1.98 0.66 3 1 C3.33 2.32 3.66 3.64 4 5 C-4.25 5 -12.5 5 -21 5 C-21.33 4.34 -21.66 3.68 -22 3 C-14.41 2.67 -6.82 2.34 1 2 C0.67 1.34 0.34 0.68 0 0 Z " fill="#F8F7F2" transform="translate(765,585)"/>
<path d="M0 0 C0.66 0 1.32 0 2 0 C2.90932912 4.66303972 3.18301791 9.19992763 3.1875 13.9375 C3.19974609 14.61490234 3.21199219 15.29230469 3.22460938 15.99023438 C3.23826957 20.73942867 2.47024589 24.54277234 1 29 C-0.07917226 25.76248322 -0.11425601 23.42248229 -0.09765625 20.01953125 C-0.09443359 18.85615234 -0.09121094 17.69277344 -0.08789062 16.49414062 C-0.07951172 15.27919922 -0.07113281 14.06425781 -0.0625 12.8125 C-0.05798828 11.58595703 -0.05347656 10.35941406 -0.04882812 9.09570312 C-0.03703065 6.06375332 -0.02056921 3.03190094 0 0 Z " fill="#5B5B59" transform="translate(767,480)"/>
<path d="M0 0 C0.33 0 0.66 0 1 0 C1.22638576 4.22840284 1.42794972 8.45763658 1.625 12.6875 C1.68945312 13.88568359 1.75390625 15.08386719 1.8203125 16.31835938 C1.871875 17.47529297 1.9234375 18.63222656 1.9765625 19.82421875 C2.02893066 20.88729248 2.08129883 21.95036621 2.13525391 23.0456543 C1.99298693 26.1531861 1.26088125 28.18339264 0 31 C-0.2759478 32.92903132 -0.48449903 34.8689032 -0.625 36.8125 C-0.73714844 38.27623047 -0.73714844 38.27623047 -0.8515625 39.76953125 C-0.90054688 40.50558594 -0.94953125 41.24164063 -1 42 C-1.33 42 -1.66 42 -2 42 C-2.02710123 39.4374282 -2.04688771 36.87514635 -2.0625 34.3125 C-2.07087891 33.59126953 -2.07925781 32.87003906 -2.08789062 32.12695312 C-2.10559213 28.25032273 -1.75639939 24.78199694 -1 21 C-0.86081463 19.30842606 -0.7564164 17.61369627 -0.68359375 15.91796875 C-0.64169922 14.98662109 -0.59980469 14.05527344 -0.55664062 13.09570312 C-0.51732422 12.13599609 -0.47800781 11.17628906 -0.4375 10.1875 C-0.37272461 8.71893555 -0.37272461 8.71893555 -0.30664062 7.22070312 C-0.2009774 4.81392973 -0.09887673 2.40706017 0 0 Z " fill="#F1DD8E" transform="translate(781,406)"/>
<path d="M0 0 C2 1 2 1 2.74609375 2.75 C3.08833984 3.86375 3.08833984 3.86375 3.4375 5 C4.4601401 8.27662235 5.53717041 11.51605455 6.6875 14.75 C7.76033971 17.9405806 8.32916094 20.59867033 8 24 C7.34 24 6.68 24 6 24 C4.02537791 19.49127956 3.28726008 15.16848693 2.5625 10.328125 C2.376875 9.55984375 2.19125 8.7915625 2 8 C1.34 7.67 0.68 7.34 0 7 C-0.6875 4 -0.6875 4 -1 1 C-0.67 0.67 -0.34 0.34 0 0 Z " fill="#5C5C5B" transform="translate(514,528)"/>
<path d="M0 0 C4.95745581 0.39042234 7.5454374 2.90806628 10.875 6.3125 C11.38546875 6.79912109 11.8959375 7.28574219 12.421875 7.78710938 C13.8671875 9.23828125 13.8671875 9.23828125 16 12 C15.8203125 14.35546875 15.8203125 14.35546875 15 16 C14.34 14.68 13.68 13.36 13 12 C12.34 12 11.68 12 11 12 C9.375 10.625 9.375 10.625 8 9 C8 8.34 8 7.68 8 7 C7.01 6.67 6.02 6.34 5 6 C5 5.34 5 4.68 5 4 C4.360625 3.71125 3.72125 3.4225 3.0625 3.125 C1 2 1 2 0 0 Z " fill="#A59159" transform="translate(740,330)"/>
<path d="M0 0 C1.485 0.99 1.485 0.99 3 2 C3 2.99 3 3.98 3 5 C3.66 5 4.32 5 5 5 C5.33 6.65 5.66 8.3 6 10 C6.66 10 7.32 10 8 10 C11 14.38461538 11 14.38461538 11 17 C11.66 17 12.32 17 13 17 C13.33 18.32 13.66 19.64 14 21 C9.36888385 18.71682735 7.38246479 16.01579052 4.75 11.625 C4.06421875 10.50351562 3.3784375 9.38203125 2.671875 8.2265625 C1.18421156 5.35551109 0.40471341 3.17819061 0 0 Z " fill="#A1A09E" transform="translate(348,516)"/>
<path d="M0 0 C5.21106963 2.68262165 9.11923932 6.67411109 13.3125 10.6875 C14.05306641 11.38939453 14.79363281 12.09128906 15.55664062 12.81445312 C17.37498787 14.53895019 19.18925573 16.26752723 21 18 C18.37886292 18 16.49064888 17.68707555 14 17 C13.91234375 16.41347656 13.8246875 15.82695312 13.734375 15.22265625 C11.91241195 9.70831065 4.91516922 5.61118365 0 3 C-0.99 3.66 -1.98 4.32 -3 5 C-1.125 1.125 -1.125 1.125 0 0 Z " fill="#816536" transform="translate(665,383)"/>
<path d="M0 0 C0 0.99 0 1.98 0 3 C-4.20406102 6.54717649 -7.76933149 6.2659662 -13 6 C-9.73120626 0.83874673 -5.9714046 -0.34122312 0 0 Z " fill="#EECC88" transform="translate(628,295)"/>
<path d="M0 0 C1.07310858 3.27185553 0.89263102 5.42947592 0.0625 8.75 C-0.13214844 9.54921875 -0.32679688 10.3484375 -0.52734375 11.171875 C-0.76130859 12.07679688 -0.76130859 12.07679688 -1 13 C-1.33 13 -1.66 13 -2 13 C-2.66 15.31 -3.32 17.62 -4 20 C-4.66 20 -5.32 20 -6 20 C-6.33 20.66 -6.66 21.32 -7 22 C-6.15634377 14.06963146 -3.78667814 7.03240225 0 0 Z " fill="#989794" transform="translate(797,522)"/>
<path d="M0 0 C0 0.66 0 1.32 0 2 C0.66 2 1.32 2 2 2 C2.33 3.32 2.66 4.64 3 6 C1.68 5.34 0.36 4.68 -1 4 C-1 3.34 -1 2.68 -1 2 C-8.92 2 -16.84 2 -25 2 C-25 1.67 -25 1.34 -25 1 C-16.64399592 -0.10102642 -8.41192037 -0.10094304 0 0 Z " fill="#434648" transform="translate(303,447)"/>
<path d="M0 0 C4 1 4 1 5.921875 3.72265625 C6.52515625 4.82480469 7.1284375 5.92695313 7.75 7.0625 C8.36359375 8.16722656 8.9771875 9.27195312 9.609375 10.41015625 C10.06828125 11.26480469 10.5271875 12.11945313 11 13 C10.01 14.485 10.01 14.485 9 16 C8.67 14.35 8.34 12.7 8 11 C7.34 11 6.68 11 6 11 C4.02 7.37 2.04 3.74 0 0 Z " fill="#928151" transform="translate(758,349)"/>
<path d="M0 0 C0.66 0 1.32 0 2 0 C6.59225513 12.48519362 6.59225513 12.48519362 6 19 C5.34 18.67 4.68 18.34 4 18 C3.5859375 15.71484375 3.5859375 15.71484375 3.375 12.9375 C3.26285156 11.55884766 3.26285156 11.55884766 3.1484375 10.15234375 C3.07496094 9.08693359 3.07496094 9.08693359 3 8 C2.34 8 1.68 8 1 8 C0.67 5.36 0.34 2.72 0 0 Z " fill="#918254" transform="translate(771,369)"/>
<path d="M0 0 C0.33 0.66 0.66 1.32 1 2 C1.66 2 2.32 2 3 2 C3 2.66 3 3.32 3 4 C3.66 4 4.32 4 5 4 C5.33 5.32 5.66 6.64 6 8 C6.66 8 7.32 8 8 8 C9.6875 10.375 9.6875 10.375 11 13 C10.67 13.66 10.34 14.32 10 15 C6.40521424 11.50792241 2.99752225 8.02524416 0 4 C0 2.68 0 1.36 0 0 Z " fill="#918D7B" transform="translate(769,328)"/>
<path d="M0 0 C0.66 0 1.32 0 2 0 C1.67 2.31 1.34 4.62 1 7 C0.34 7 -0.32 7 -1 7 C-1.33 8.32 -1.66 9.64 -2 11 C-2.66 11 -3.32 11 -4 11 C-4 11.66 -4 12.32 -4 13 C-4.66 12.67 -5.32 12.34 -6 12 C-5.690625 11.401875 -5.38125 10.80375 -5.0625 10.1875 C-3.89790296 7.91043228 -3.89790296 7.91043228 -3 5 C-1.5625 2.3125 -1.5625 2.3125 0 0 Z " fill="#757470" transform="translate(640,563)"/>
<path d="M0 0 C1.03159626 3.09478879 0.97482862 4.52631393 0.5625 7.6875 C0.46066406 8.49574219 0.35882813 9.30398438 0.25390625 10.13671875 C0.17011719 10.75160156 0.08632813 11.36648438 0 12 C-0.66 12 -1.32 12 -2 12 C-2 13.98 -2 15.96 -2 18 C-2.99 18 -3.98 18 -5 18 C-4.4887874 13.6546929 -3.74535211 10.00404308 -2 6 C-1.32204472 4.00379834 -0.65266469 2.00461299 0 0 Z " fill="#666765" transform="translate(451,451)"/>
<path d="M0 0 C3.33333333 3.33333333 6.66666667 6.66666667 10 10 C9.67 10.99 9.34 11.98 9 13 C7 11.625 7 11.625 5 10 C5 9.34 5 8.68 5 8 C4.34 8 3.68 8 3 8 C2.67 6.68 2.34 5.36 2 4 C1.34 4 0.68 4 0 4 C0 2.68 0 1.36 0 0 Z " fill="#B5B4B0" transform="translate(548,569)"/>
<path d="M0 0 C0.90105469 0.00902344 1.80210937 0.01804687 2.73046875 0.02734375 C3.41753906 0.03894531 4.10460937 0.05054688 4.8125 0.0625 C4.8125 0.3925 4.8125 0.7225 4.8125 1.0625 C2.04382003 1.75990804 -0.72686862 2.44572853 -3.5 3.125 C-4.28568359 3.32416016 -5.07136719 3.52332031 -5.88085938 3.72851562 C-7.0168457 4.00405273 -7.0168457 4.00405273 -8.17578125 4.28515625 C-9.22052612 4.54437866 -9.22052612 4.54437866 -10.28637695 4.80883789 C-12.1875 5.0625 -12.1875 5.0625 -15.1875 4.0625 C-5.65679825 -0.07346491 -5.65679825 -0.07346491 0 0 Z " fill="#C8C6B7" transform="translate(644.1875,289.9375)"/>
<path d="M0 0 C0.66 0 1.32 0 2 0 C3.03046722 1.78614318 4.04913236 3.57910018 5.0625 5.375 C5.63097656 6.37273437 6.19945312 7.37046875 6.78515625 8.3984375 C7.18605469 9.25695312 7.58695313 10.11546875 8 11 C7.67 11.66 7.34 12.32 7 13 C6.01 13 5.02 13 4 13 C2.68 8.71 1.36 4.42 0 0 Z " fill="#877F64" transform="translate(780,343)"/>
<path d="M0 0 C0.66 0.33 1.32 0.66 2 1 C1.67 1.66 1.34 2.32 1 3 C1.66 3.33 2.32 3.66 3 4 C2.07038578 5.15224028 1.1309875 6.29659176 0.1875 7.4375 C-0.59560547 8.39462891 -0.59560547 8.39462891 -1.39453125 9.37109375 C-3 11 -3 11 -6 12 C-4.125 7.25 -4.125 7.25 -3 5 C-2.34 5 -1.68 5 -1 5 C-0.67 3.35 -0.34 1.7 0 0 Z " fill="#917D54" transform="translate(567,339)"/>
<path d="M0 0 C2 1 2 1 3 3 C2.16855469 3.27263672 2.16855469 3.27263672 1.3203125 3.55078125 C0.59585938 3.80214844 -0.12859375 4.05351562 -0.875 4.3125 C-1.95394531 4.67794922 -1.95394531 4.67794922 -3.0546875 5.05078125 C-5.33994905 5.96335547 -5.33994905 5.96335547 -7 9 C-8.32 8.67 -9.64 8.34 -11 8 C-9.72992786 7.0406581 -8.45891081 6.08256706 -7.1875 5.125 C-6.47980469 4.59132813 -5.77210938 4.05765625 -5.04296875 3.5078125 C-3.39543703 2.29185219 -1.70375789 1.13583859 0 0 Z " fill="#958B70" transform="translate(604,305)"/>
<path d="M0 0 C0.66 0 1.32 0 2 0 C2 0.99 2 1.98 2 3 C2.66 3 3.32 3 4 3 C4.69965443 4.26418246 5.38434763 5.53665402 6.0625 6.8125 C6.63677734 7.87404297 6.63677734 7.87404297 7.22265625 8.95703125 C8 11 8 11 7 14 C6.731875 13.38125 6.46375 12.7625 6.1875 12.125 C5.04443152 9.7004767 5.04443152 9.7004767 2 8 C2 7.01 2 6.02 2 5 C1.01 4.34 0.02 3.68 -1 3 C-0.67 2.01 -0.34 1.02 0 0 Z " fill="#646462" transform="translate(746,547)"/>
<path d="M0 0 C2.67868487 1.33934244 2.74954078 2.51692397 3.6875 5.3125 C3.95949219 6.09238281 4.23148437 6.87226563 4.51171875 7.67578125 C5.03839183 10.18274511 4.8178554 11.60132343 4 14 C3.67 13.01 3.34 12.02 3 11 C2.34 10.67 1.68 10.34 1 10 C-0.55203911 6.3241179 -1.46534385 3.80989402 0 0 Z " fill="#6B6B69" transform="translate(506,505)"/>
<path d="M0 0 C0.99 0 1.98 0 3 0 C6 4.22222222 6 4.22222222 6 7 C6.66 7 7.32 7 8 7 C8.33 8.32 8.66 9.64 9 11 C4.57128343 8.78564172 2.45699405 6.27698964 0 2 C0 1.34 0 0.68 0 0 Z " fill="#969693" transform="translate(337,502)"/>
<path d="M0 0 C0.66 0.99 1.32 1.98 2 3 C1 6 1 6 -0.5 9.4375 C-1.58805463 12.02162974 -2.45527843 14.27639213 -3 17 C-3.66 17 -4.32 17 -5 17 C-1.92482916 5.47835991 -1.92482916 5.47835991 0 0 Z " fill="#1B1C1A" transform="translate(839,480)"/>
<path d="M0 0 C2.67868487 1.33934244 2.74954078 2.51692397 3.6875 5.3125 C4.09548828 6.48232422 4.09548828 6.48232422 4.51171875 7.67578125 C5.03839183 10.18274511 4.8178554 11.60132343 4 14 C3.67 12.35 3.34 10.7 3 9 C2.34 10.32 1.68 11.64 1 13 C-0.10228696 8.59085217 -0.07654536 4.51617599 0 0 Z " fill="#66645F" transform="translate(898,570)"/>
<path d="M0 0 C0.66 0 1.32 0 2 0 C2.33 1.65 2.66 3.3 3 5 C3.66 5 4.32 5 5 5 C5.33 6.32 5.66 7.64 6 9 C6.66 9 7.32 9 8 9 C7.67 9.99 7.34 10.98 7 12 C2.5991297 8.17819158 1.19194469 5.52628901 0 0 Z " fill="#686766" transform="translate(316,468)"/>
<path d="M0 0 C1 3 1 3 -0.25 6.5 C-1.67322614 9.34645229 -2.58327112 11.04360043 -5 13 C-5.66 12.67 -6.32 12.34 -7 12 C-4.69 8.04 -2.38 4.08 0 0 Z " fill="#0D0E16" transform="translate(790,458)"/>
<path d="M0 0 C4.40184756 1.20050388 7.1339154 2.39085643 10 6 C10.75 8.25 10.75 8.25 11 10 C9 10 9 10 7.375 8.625 C6 7 6 7 6 5 C5.01 4.67 4.02 4.34 3 4 C3 3.34 3 2.68 3 2 C2.01 1.67 1.02 1.34 0 1 C0 0.67 0 0.34 0 0 Z " fill="#7D673D" transform="translate(691,407)"/>
<path d="M0 0 C0.33 0 0.66 0 1 0 C1.33 2.31 1.66 4.62 2 7 C2.33 7 2.66 7 3 7 C3 9.97 3 12.94 3 16 C2.34 16.33 1.68 16.66 1 17 C-0.13480527 13.39006828 -0.10015767 10.0157673 -0.0625 6.25 C-0.05347656 5.07953125 -0.04445313 3.9090625 -0.03515625 2.703125 C-0.02355469 1.81109375 -0.01195312 0.9190625 0 0 Z " fill="#A6854B" transform="translate(545,389)"/>
<path d="M0 0 C0.33 0 0.66 0 1 0 C1.29530201 8.8590604 1.29530201 8.8590604 -1 12 C-1.99 12.66 -2.98 13.32 -4 14 C-4 12.68 -4 11.36 -4 10 C-3.34 10 -2.68 10 -2 10 C-1.93941406 9.36191406 -1.87882813 8.72382813 -1.81640625 8.06640625 C-1.73261719 7.24011719 -1.64882813 6.41382813 -1.5625 5.5625 C-1.48128906 4.73878906 -1.40007813 3.91507812 -1.31640625 3.06640625 C-1 1 -1 1 0 0 Z " fill="#7A7B78" transform="translate(808,489)"/>
<path d="M0 0 C1 2 1 2 0.0625 5.125 C-0.288125 6.07375 -0.63875 7.0225 -1 8 C-1.66 8 -2.32 8 -3 8 C-3.99 11.465 -3.99 11.465 -5 15 C-6.21940083 11.3417975 -5.63709904 10.41551324 -4.1875 6.9375 C-3.83042969 6.05964844 -3.47335937 5.18179687 -3.10546875 4.27734375 C-2 2 -2 2 0 0 Z " fill="#6D6E6C" transform="translate(815,473)"/>
<path d="M0 0 C0.66 0 1.32 0 2 0 C2.53394179 1.4117783 3.05165104 2.82970244 3.5625 4.25 C3.85253906 5.03890625 4.14257812 5.8278125 4.44140625 6.640625 C5.04522837 9.19103452 4.8473932 10.55322229 4 13 C0.87312592 8.30968888 -0.2610462 5.74301634 0 0 Z " fill="#565755" transform="translate(858,455)"/>
<path d="M0 0 C1.485 0.99 1.485 0.99 3 2 C3 2.99 3 3.98 3 5 C3.66 5 4.32 5 5 5 C5.33 6.65 5.66 8.3 6 10 C6.66 10 7.32 10 8 10 C7.67 10.66 7.34 11.32 7 12 C2.5991297 8.17819158 1.19194469 5.52628901 0 0 Z " fill="#848482" transform="translate(348,516)"/>
<path d="M0 0 C2.46313739 1.82748903 3.83428618 3.22976216 4.48828125 6.26953125 C4.72518293 8.51479346 4.90361349 10.74455578 5 13 C4.34 13 3.68 13 3 13 C2.49242138 11.58603098 1.99425075 10.16868271 1.5 8.75 C1.08234375 7.56664062 1.08234375 7.56664062 0.65625 6.359375 C0 4 0 4 0 0 Z " fill="#636362" transform="translate(849,509)"/>
<path d="M0 0 C0.66 0 1.32 0 2 0 C2.625 1.8125 2.625 1.8125 3 4 C0 8.5 0 8.5 -3 13 C-2.52060632 8.28596212 -2.03165952 4.33420699 0 0 Z " fill="#575753" transform="translate(444,471)"/>
<path d="M0 0 C3 2 3 2 3.51171875 3.9453125 C3.67447917 5.96354167 3.83723958 7.98177083 4 10 C3.34 10 2.68 10 2 10 C0.39644899 6.49223216 -0.22036864 3.85645121 0 0 Z " fill="#A09F9C" transform="translate(518,542)"/>
<path d="M0 0 C0.33 0.66 0.66 1.32 1 2 C1.66 2 2.32 2 3 2 C4.5625 4.8125 4.5625 4.8125 6 8 C5.67 8.99 5.34 9.98 5 11 C5 10.34 5 9.68 5 9 C4.01 8.67 3.02 8.34 2 8 C0.04457812 5.01540871 0 3.73585209 0 0 Z " fill="#767675" transform="translate(761,468)"/>
<path d="M0 0 C2 3 2 3 2 6 C2.99 6.33 3.98 6.66 5 7 C5.33 9.31 5.66 11.62 6 14 C4 12 4 12 3 9 C2.34 8.67 1.68 8.34 1 8 C0.26924352 5.6859378 -0.40138258 3.35171131 -1 1 C-0.67 0.67 -0.34 0.34 0 0 Z " fill="#8B8A88" transform="translate(492,467)"/>
<path d="M0 0 C4.97306516 0.49730652 8.63799813 1.55302334 13 4 C13 4.33 13 4.66 13 5 C11.02 5 9.04 5 7 5 C6.67 4.01 6.34 3.02 6 2 C4.02 2 2.04 2 0 2 C0 1.34 0 0.68 0 0 Z " fill="#7F807E" transform="translate(735,452)"/>
<path d="M0 0 C0 3 0 3 -2.5 5.6875 C-3.325 6.450625 -4.15 7.21375 -5 8 C-5.66 7.67 -6.32 7.34 -7 7 C-5.54744301 3.17053157 -3.57104439 1.87949705 0 0 Z " fill="#767573" transform="translate(761,519)"/>
<path d="M0 0 C0.66 1.32 1.32 2.64 2 4 C-1.96 5.98 -1.96 5.98 -6 8 C-4.21844267 4.43688534 -2.83236991 2.64354525 0 0 Z " fill="#928363" transform="translate(580,324)"/>
<path d="M0 0 C-2.35277269 2.72426311 -4.62496331 3.8141763 -8 5 C-6.19780722 -0.02039417 -5.34443412 -1.60333024 0 0 Z " fill="#D6BE89" transform="translate(589,321)"/>
<path d="M0 0 C3.63 0.33 7.26 0.66 11 1 C6.01222852 3.49388574 4.33016752 2.88836125 -1 2 C-0.67 1.34 -0.34 0.68 0 0 Z " fill="#B1AD9F" transform="translate(692,288)"/>
<path d="M0 0 C0.33 0.99 0.66 1.98 1 3 C1.66 3 2.32 3 3 3 C3.33 3.99 3.66 4.98 4 6 C3.34 6 2.68 6 2 6 C2 7.98 2 9.96 2 12 C1.67 12 1.34 12 1 12 C0.01751476 7.9472484 -0.08159574 4.16138263 0 0 Z " fill="#F8E497" transform="translate(780,449)"/>
<path d="M0 0 C-3.22515763 1.73662334 -6.51329166 2.8905928 -10 4 C-9 1 -9 1 -7.25 -0.25 C-4.47275102 -1.17574966 -2.78428335 -0.77341204 0 0 Z " fill="#917A48" transform="translate(643,312)"/>
<path d="M0 0 C4.875 1.75 4.875 1.75 6 4 C5.67 4.66 5.34 5.32 5 6 C4.01 6 3.02 6 2 6 C1.34 4.02 0.68 2.04 0 0 Z " fill="#C9BA97" transform="translate(735,302)"/>
<path d="M0 0 C-2.35438733 1.42944945 -3.48032433 2.08661261 -6.25 1.625 C-6.8275 1.41875 -7.405 1.2125 -8 1 C-8 0.34 -8 -0.32 -8 -1 C-4.59745511 -2.2151946 -3.06748874 -1.86240388 0 0 Z " fill="#ECC06D" transform="translate(640,295)"/>
<path d="M0 0 C2.61885488 2.36944013 4.41866551 4.83733102 6 8 C5.67 8.99 5.34 9.98 5 11 C4.731875 10.401875 4.46375 9.80375 4.1875 9.1875 C3.12897949 6.95745037 3.12897949 6.95745037 1.375 5.5 C0 4 0 4 0 0 Z " fill="#4F504E" transform="translate(764,579)"/>
<path d="M0 0 C0.66 0 1.32 0 2 0 C3.6875 2.375 3.6875 2.375 5 5 C4.67 5.66 4.34 6.32 4 7 C2.35 6.01 0.7 5.02 -1 4 C-0.67 2.68 -0.34 1.36 0 0 Z " fill="#94928D" transform="translate(330,490)"/>
<path d="M0 0 C0.66 0.33 1.32 0.66 2 1 C1.21681311 4.91593446 -0.39179858 8.36406635 -2 12 C-3.40907283 9.18185434 -2.50872691 7.82722796 -1.5625 4.875 C-1.27503906 3.96492188 -0.98757813 3.05484375 -0.69140625 2.1171875 C-0.46324219 1.41851562 -0.23507812 0.71984375 0 0 Z " fill="#1B1B1A" transform="translate(469,480)"/>
<path d="M0 0 C0.33 0 0.66 0 1 0 C0.4140625 6.15234375 0.4140625 6.15234375 0 8 C-0.99 8.495 -0.99 8.495 -2 9 C-2.6875 7.3125 -2.6875 7.3125 -3 5 C-1.625 2.25 -1.625 2.25 0 0 Z " fill="#928353" transform="translate(793,449)"/>
<path d="M0 0 C0.66 0.33 1.32 0.66 2 1 C0.68 2.65 -0.64 4.3 -2 6 C-3.32 5.67 -4.64 5.34 -6 5 C-5.01 4.67 -4.02 4.34 -3 4 C-3 3.34 -3 2.68 -3 2 C-2.01 1.34 -1.02 0.68 0 0 Z " fill="#888068" transform="translate(591,314)"/>
<path d="M0 0 C2.475 0.495 2.475 0.495 5 1 C5 1.66 5 2.32 5 3 C5.66 3.33 6.32 3.66 7 4 C4.69 4 2.38 4 0 4 C0 2.68 0 1.36 0 0 Z " fill="#BDB093" transform="translate(749,312)"/>
<path d="M0 0 C-3.44450737 2.29633824 -5.93812283 2.54016485 -10 3 C-9 1 -9 1 -6.6875 -0.1875 C-3.88010429 -1.03624754 -2.698065 -0.99928333 0 0 Z " fill="#A7A392" transform="translate(627,296)"/>
<path d="M0 0 C4.67692308 1.47692308 4.67692308 1.47692308 6.3125 4.125 C6.539375 4.74375 6.76625 5.3625 7 6 C3.62496331 4.8141763 1.35277269 3.72426311 -1 1 C-0.67 0.67 -0.34 0.34 0 0 Z " fill="#8E8E8A" transform="translate(559,581)"/>
<path d="M0 0 C2 1 2 1 3.1875 3.3125 C4.03624754 6.11989571 3.99928333 7.301935 3 10 C2.34 9.67 1.68 9.34 1 9 C0.5859375 6.93359375 0.5859375 6.93359375 0.375 4.4375 C0.30023437 3.61121094 0.22546875 2.78492188 0.1484375 1.93359375 C0.09945312 1.29550781 0.05046875 0.65742187 0 0 Z " fill="#61615F" transform="translate(530,575)"/>
<path d="M0 0 C2.50037734 2.17424117 3.43628586 3.73045798 4 7 C3.01 7.495 3.01 7.495 2 8 C0.4375 5.6875 0.4375 5.6875 -1 3 C-0.67 2.01 -0.34 1.02 0 0 Z " fill="#B6B7B2" transform="translate(725,561)"/>
<path d="M0 0 C0.99 0 1.98 0 3 0 C3.33 1.32 3.66 2.64 4 4 C3.34 4 2.68 4 2 4 C1.67 4.99 1.34 5.98 1 7 C0.67 7 0.34 7 0 7 C0 4.69 0 2.38 0 0 Z " fill="#B1A26A" transform="translate(650,431)"/>
<path d="M0 0 C0.99 0 1.98 0 3 0 C4.75 2.375 4.75 2.375 6 5 C5.67 5.66 5.34 6.32 5 7 C3.29115995 5.37660195 1.62553283 3.70680947 0 2 C0 1.34 0 0.68 0 0 Z " fill="#9B9782" transform="translate(774,336)"/>
<path d="M0 0 C0.66 0.33 1.32 0.66 2 1 C1.25 8.75 1.25 8.75 -1 11 C-1.125 3.375 -1.125 3.375 0 0 Z " fill="#73726E" transform="translate(440,567)"/>
<path d="M0 0 C0.99 0.495 0.99 0.495 2 1 C2.40729228 3.32156597 2.74438677 5.6568787 3 8 C2.01 8 1.02 8 0 8 C0 5.36 0 2.72 0 0 Z " fill="#737271" transform="translate(524,557)"/>
<path d="M0 0 C0.93423645 3.01031744 1.04449911 3.86650268 0 7 C-1.5625 8.6875 -1.5625 8.6875 -3 10 C-2.49287967 6.28111761 -1.88391785 3.26545761 0 0 Z " fill="#545352" transform="translate(797,522)"/>
<path d="M0 0 C0.33 1.32 0.66 2.64 1 4 C0.34 4 -0.32 4 -1 4 C-1.66 5.65 -2.32 7.3 -3 9 C-3.33 8.34 -3.66 7.68 -4 7 C-1.55555556 1.55555556 -1.55555556 1.55555556 0 0 Z " fill="#928557" transform="translate(667,413)"/>
<path d="M0 0 C0.33 0 0.66 0 1 0 C1 1.65 1 3.3 1 5 C1.66 5 2.32 5 3 5 C3 6.65 3 8.3 3 10 C2.34 10 1.68 10 1 10 C-0.1577506 6.52674819 -0.06866652 3.63932552 0 0 Z " fill="#9D9577" transform="translate(793,368)"/>
<path d="M0 0 C-3.20380017 2.13586678 -4.01939967 2.23132175 -7.6875 2.125 C-8.89986328 2.09792969 -8.89986328 2.09792969 -10.13671875 2.0703125 C-11.05904297 2.03550781 -11.05904297 2.03550781 -12 2 C-12 1.67 -12 1.34 -12 1 C-3.96428571 -1.27678571 -3.96428571 -1.27678571 0 0 Z " fill="#878881" transform="translate(666,364)"/>
</svg>
